<?xml version="1.0" encoding="utf-8"?>
<!-- Generator: Adobe Illustrator 24.1.1, SVG Export Plug-In . SVG Version: 6.00 Build 0)  -->
<svg version="1.1" id="Camada_1" xmlns="http://www.w3.org/2000/svg" xmlns:xlink="http://www.w3.org/1999/xlink" x="0px" y="0px"
	 viewBox="0 0 500 500" style="enable-background:new 0 0 500 500;" xml:space="preserve">
<style type="text/css">
	.st0{fill:#FFFFFF;}
	.st1{fill:#262626;}
</style>
<rect x="70" y="77" class="st0" width="362" height="362"/>
<g>
	<path class="st1" d="M268.9,227.8v-0.7c-0.1,0.2-0.3,0.5-0.4,0.7H268.9z"/>
	<path class="st1" d="M0,0v500h500V0H0z M166.7,397.1h-65.8v-198h65.8V397.1z M133.8,172.1L133.8,172.1l-0.4,0
		c-22.1,0-36.4-15.2-36.4-34.2c0-19.4,14.7-34.2,37.2-34.2c22.5,0,36.4,14.8,36.8,34.2C171,156.9,156.7,172.1,133.8,172.1z
		 M404,397.1h-65.8V291.2c0-26.6-9.5-44.8-33.3-44.8c-18.2,0-29,12.2-33.8,24.1c-1.7,4.2-2.2,10.1-2.2,16v110.6h-65.8
		c0,0,0.9-179.4,0-198h65.8v28c8.7-13.5,24.4-32.7,59.3-32.7c43.3,0,75.8,28.3,75.8,89.1V397.1z"/>
</g>
</svg>
