<?xml version="1.0" encoding="utf-8"?>
<!-- Generator: Adobe Illustrator 24.1.1, SVG Export Plug-In . SVG Version: 6.00 Build 0)  -->
<svg version="1.1" id="Layer_1" xmlns="http://www.w3.org/2000/svg" xmlns:xlink="http://www.w3.org/1999/xlink" x="0px" y="0px"
	 viewBox="0 0 800 800" style="enable-background:new 0 0 800 800;" xml:space="preserve">
<rect x="148" y="238" style="fill:#FFFFFF;" width="537" height="349"/>
<g>
	<path style="fill:#0D5997;" d="M334.8,415.8c-5.9-2.7-14.1-4.1-24.7-4.2h-60.9v65.9h60.2c10.8,0,19.1-1.4,25-4.4
		c10.9-5.5,16.3-15.6,16.3-30.8C350.6,429.5,345.3,420.6,334.8,415.8z"/>
	<path style="fill:#0D5997;" d="M537.7,382c-7.7-6.6-17.2-9.8-28.4-9.8c-12.2,0-21.7,3.4-28.6,10.5c-6.7,7-10.9,16.4-12.8,28.3h82.3
		C549.5,398.3,545.2,388.8,537.7,382z"/>
	<path style="fill:#0D5997;" d="M335.6,364.5c6.7-4.1,10-11.4,10-21.7c0-11.6-4.4-19.1-13.3-22.8c-7.7-2.5-17.3-3.9-29.2-3.9h-53.7
		v54.5h60C320.2,370.8,328.8,368.8,335.6,364.5z"/>
	<path style="fill:#0D5997;" d="M0,0v800h800V0H0L0,0z M455.6,284.8h105.9v30.8H455.6V284.8L455.6,284.8z M391.7,485.3
		c-4.7,7.7-10.5,14.2-17.5,19.4c-7.8,6.1-17.2,10.2-28,12.5c-10.8,2.2-22.3,3.3-35,3.3H200V273.3h119.5c30.2,0.5,51.6,9.2,64.1,26.4
		c7.5,10.5,11.3,23.1,11.3,37.8c0,15-3.8,27.2-11.4,36.4c-4.2,5.2-10.6,9.8-18.9,14.1c12.7,4.7,22.2,11.9,28.6,21.9s9.7,22,9.7,36.3
		C402.8,460.5,399.1,473.6,391.7,485.3z M600,442.5H466.9c0.8,18.3,7,31.3,19.1,38.6c7.3,4.5,16.1,6.9,26.4,6.9
		c10.8,0,19.7-2.8,26.6-8.4c3.8-3,7-7.2,9.8-12.7h48.8c-1.3,10.8-7.2,21.9-17.7,33.1c-16.4,17.8-39.2,26.7-68.8,26.7
		c-24.4,0-45.8-7.5-64.4-22.5s-28-39.4-28-73.1c0-31.7,8.4-55.9,25.2-72.8c16.9-16.9,38.6-25.3,65.3-25.3c15.9,0,30.3,2.8,43,8.6
		c12.8,5.6,23.3,14.7,31.6,27c7.5,10.8,12.3,23.4,14.5,37.8C599.7,414.7,600.2,426.7,600,442.5z"/>
</g>
</svg>
