<?xml version="1.0" encoding="utf-8"?>
<!-- Generator: Adobe Illustrator 24.1.1, SVG Export Plug-In . SVG Version: 6.00 Build 0)  -->
<svg version="1.1" id="Camada_1" xmlns="http://www.w3.org/2000/svg" xmlns:xlink="http://www.w3.org/1999/xlink" x="0px" y="0px"
	 viewBox="0 0 800 800" style="enable-background:new 0 0 800 800;" xml:space="preserve">
<polygon style="fill:#262626;" points="318.9,72.9 318.9,107.3 230.9,107.3 230.9,0.8 318.9,0.8 318.9,38.5 268.6,38.5 268.6,73 
	318.9,73 "/>
<path style="fill:#262626;" d="M409.3,38.5h35.1V0.8h-88c0,0,0,18.9,0,37.7c11.8,11.8,17.9,17.4,34.9,34.4c-10,0-34.9,0-34.9,0v34.4
	h88V72.9L409.3,38.5z"/>
<path style="fill:#262626;" d="M534,38.5h35.1V0.8h-88c0,0,0,18.9,0,37.7C492.9,50.3,499,55.9,516,72.9c-9.9,0-34.9,0-34.9,0v34.4
	h88V72.9L534,38.5z"/>
<path style="fill:#262626;" d="M115,158l53.4,578.9L400,799.2l231.6-62.3L685,158H115z M570.2,345.5l-170.4,72.9l-0.4,0.2h0.4h164.4
	l-18.9,216.8L400,677.8l-0.3-0.1v0.1l-146.1-43.2l-9.4-109.2h0.3h72h0.3l4.7,56.6l77.5,19.5l0.7-0.2v0.1l80.4-22.6l5.5-91.1
	l-85.9-0.3l-160.2-0.5l-5.5-68.3l165.7-69l9.7-4h-9.7h-172l-8.6-69.9h180.7h177.5L570.2,345.5z"/>
</svg>
