<?xml version="1.0" encoding="utf-8"?>
<!-- Generator: Adobe Illustrator 24.1.1, SVG Export Plug-In . SVG Version: 6.00 Build 0)  -->
<svg version="1.1" id="Camada_1" xmlns="http://www.w3.org/2000/svg" xmlns:xlink="http://www.w3.org/1999/xlink" x="0px" y="0px"
	 viewBox="0 0 666.7 666.7" style="enable-background:new 0 0 666.7 666.7;" xml:space="preserve">
<path style="fill-rule:evenodd;clip-rule:evenodd;fill:#FFB30D;" d="M48.8,48.8C0,97.6,0,176.2,0,333.3C0,490.5,0,569,48.8,617.8
	c48.8,48.8,127.4,48.8,284.5,48.8c157.1,0,235.7,0,284.5-48.8c48.8-48.8,48.8-127.4,48.8-284.5c0-157.1,0-235.7-48.8-284.5
	C569,0,490.5,0,333.3,0C176.2,0,97.6,0,48.8,48.8z M396.6,97.2c17,4.6,27.1,22,22.5,39.1l-110,410.7c-4.6,17-22,27.1-39.1,22.6
	c-17-4.6-27.1-22-22.5-39.1l110-410.7C362.1,102.7,379.6,92.6,396.6,97.2z M459.6,183.2c12.5-12.5,32.6-12.5,45.1,0l8.9,8.9
	c27,27,49.5,49.5,65,69.8c16.3,21.4,27.8,44,27.8,71.4s-11.5,50-27.8,71.4c-15.5,20.3-38,42.8-65,69.8l-8.9,8.9
	c-12.5,12.5-32.6,12.5-45.1,0s-12.5-32.6,0-45.1l7.3-7.3c29-29,48.4-48.5,61-65c12-15.7,14.7-24.9,14.7-32.7s-2.7-17-14.7-32.7
	c-12.6-16.5-32-36-61-65l-7.3-7.3C447.1,215.9,447.1,195.7,459.6,183.2z M162,183.2c12.5-12.5,32.6-12.5,45.1,0
	c12.5,12.5,12.5,32.6,0,45.1l-7.3,7.3c-29,29-48.4,48.5-61,65c-12,15.7-14.7,24.9-14.7,32.7s2.7,17,14.7,32.7c12.6,16.5,32,36,61,65
	l7.3,7.3c12.5,12.5,12.5,32.6,0,45.1c-12.5,12.5-32.6,12.5-45.1,0l-8.9-8.9c-27-27-49.5-49.5-65-69.8c-16.3-21.4-27.8-44-27.8-71.4
	s11.5-50,27.8-71.4c15.5-20.3,38-42.8,65-69.8L162,183.2z"/>
</svg>
