<?xml version="1.0" encoding="utf-8"?>
<!-- Generator: Adobe Illustrator 24.1.1, SVG Export Plug-In . SVG Version: 6.00 Build 0)  -->
<svg version="1.1" id="Camada_1" xmlns="http://www.w3.org/2000/svg" xmlns:xlink="http://www.w3.org/1999/xlink" x="0px" y="0px"
	 viewBox="0 0 500 500" style="enable-background:new 0 0 500 500;" xml:space="preserve">
<rect x="76" y="99" style="fill-rule:evenodd;clip-rule:evenodd;fill:#FFFFFF;" width="348" height="354"/>
<desc>Created with Sketch.</desc>
<path style="fill-rule:evenodd;clip-rule:evenodd;fill:#0D5997;" d="M0,0v500h500V0H0z M201.7,424.5c0.4-1.1,0.6-2.3,0.6-3.5
	c0-4.6-0.2-16.8-0.3-32.9c-53.6,11.7-64.9-25.9-64.9-25.9c-8.8-22.3-21.4-28.3-21.4-28.3c-17.5-12,1.3-11.8,1.3-11.8
	c19.3,1.4,29.5,19.9,29.5,19.9c17.2,29.6,45.1,21,56.1,16.1c1.7-12.5,6.7-21,12.2-25.9c-42.8-4.9-87.8-21.5-87.8-95.6
	c0-21.1,7.5-38.4,19.8-51.9c-2-4.9-8.6-24.6,1.9-51.2c0,0,16.2-5.2,53,19.8c15.4-4.3,31.9-6.4,48.2-6.5c16.4,0.1,32.9,2.2,48.2,6.5
	c36.8-25,52.9-19.8,52.9-19.8c10.5,26.6,3.9,46.3,1.9,51.2c12.4,13.5,19.8,30.8,19.8,51.9c0,74.3-45.1,90.7-88,95.5
	c6.9,6,13.1,17.8,13.1,35.8c0,25.9-0.2,46.7-0.2,53.1c0,1.2,0.2,2.5,0.6,3.7c-15.2,4.3-31.3,6.7-47.9,6.7
	C233.5,431.4,217.1,429,201.7,424.5z"/>
</svg>
