<?xml version="1.0" encoding="utf-8"?>
<!-- Generator: Adobe Illustrator 24.1.1, SVG Export Plug-In . SVG Version: 6.00 Build 0)  -->
<svg version="1.1" id="Camada_1" xmlns="http://www.w3.org/2000/svg" xmlns:xlink="http://www.w3.org/1999/xlink" x="0px" y="0px"
	 viewBox="0 0 800 800" style="enable-background:new 0 0 800 800;" xml:space="preserve">
<polygon style="fill:#262626;" points="169.8,0.8 205.8,0.8 205.8,36.4 238.7,36.4 238.7,0.8 274.7,0.8 274.7,108.5 238.7,108.5 
	238.7,72.4 205.8,72.4 205.8,108.5 169.8,108.5 169.8,0.8 "/>
<polygon style="fill:#262626;" points="322,36.5 290.3,36.5 290.3,0.8 389.7,0.8 389.7,36.5 358,36.5 358,108.5 322,108.5 322,36.5 
	"/>
<polygon style="fill:#262626;" points="405.5,0.8 443,0.8 466.1,38.6 489.2,0.8 526.7,0.8 526.7,108.5 490.9,108.5 490.9,55.1 
	466.1,93.4 465.5,93.4 440.7,55.1 440.7,108.5 405.5,108.5 405.5,0.8 "/>
<polygon style="fill:#262626;" points="544.6,0.8 580.6,0.8 580.6,72.9 631.2,72.9 631.2,108.5 544.6,108.5 "/>
<path style="fill:#262626;" d="M117.2,157.7l51.5,577.4l231,64.1L631.3,735l51.5-577.3H117.2z M575.5,294.7l-3.2,35.9l-1.4,15.9
	h-0.2H400h-0.2h-99.9l6.5,72.5h93.5h0.2h145.3h19.1l-1.7,19L546,624.5l-1.1,12L400,676.6l-0.3,0.1l-145.1-40.3l-9.9-111.2h32.8h38.3
	l5,56.5l78.9,21.3h0.1l79-21.3l8.2-91.8h-87h-0.2H241.5l-17.4-195.2l-1.7-19h177.3h0.2H577L575.5,294.7z"/>
</svg>
