<?xml version="1.0" encoding="utf-8"?>
<!-- Generator: Adobe Illustrator 24.1.1, SVG Export Plug-In . SVG Version: 6.00 Build 0)  -->
<svg version="1.1" id="Camada_1" xmlns="http://www.w3.org/2000/svg" xmlns:xlink="http://www.w3.org/1999/xlink" x="0px" y="0px"
	 viewBox="0 0 1000 800" style="enable-background:new 0 0 1000 800;" xml:space="preserve">
<polygon style="fill:#262626;" points="269.8,0.8 305.8,0.8 305.8,36.4 338.7,36.4 338.7,0.8 374.7,0.8 374.7,108.5 338.7,108.5 
	338.7,72.4 305.8,72.4 305.8,108.5 269.8,108.5 "/>
<polygon style="fill:#262626;" points="422,36.5 390.3,36.5 390.3,0.8 489.7,0.8 489.7,36.5 458,36.5 458,108.5 422,108.5 "/>
<polygon style="fill:#262626;" points="505.5,0.8 543,0.8 566.1,38.6 589.2,0.8 626.7,0.8 626.7,108.5 590.9,108.5 590.9,55.1 
	566.1,93.4 565.5,93.4 540.7,55.1 540.7,108.5 505.5,108.5 "/>
<polygon style="fill:#262626;" points="644.6,0.8 680.6,0.8 680.6,72.9 731.2,72.9 731.2,108.5 644.6,108.5 "/>
<path style="fill:#262626;" d="M217.2,157.7l51.5,577.4l231,64.1L731.3,735l51.5-577.3L217.2,157.7L217.2,157.7z M675.5,294.7
	l-3.2,35.9l-1.4,15.9h-0.2H500h-0.2h-99.9l6.5,72.5h93.5h0.2h145.3h19.1l-1.7,19L646,624.5l-1.1,12L500,676.6l-0.3,0.1l-145.1-40.3
	l-9.9-111.2h32.8h38.3l5,56.5l78.9,21.3h0.1l79-21.3l8.2-91.8h-87h-0.2H341.5l-17.4-195.2l-1.7-19h177.3h0.2H677L675.5,294.7z"/>
</svg>
