<?xml version="1.0" encoding="utf-8"?>
<!-- Generator: Adobe Illustrator 24.1.1, SVG Export Plug-In . SVG Version: 6.00 Build 0)  -->
<svg version="1.1" id="Camada_1" xmlns="http://www.w3.org/2000/svg" xmlns:xlink="http://www.w3.org/1999/xlink" x="0px" y="0px"
	 viewBox="0 0 500 500" style="enable-background:new 0 0 500 500;" xml:space="preserve">
<rect x="70" y="77" style="fill:#FFFFFF;" width="362" height="362"/>
<path style="fill:#0D5997;" d="M363.5,162.7c-5.7-11.3-14.9-20.4-26.2-26.2c-4.7-2.4-11.4-4.3-24.6-5.4c-13.5-1.1-31-1.1-56.7-1.1
	h-12c-25.7,0-43.2,0-56.7,1.1c-13.2,1.1-19.9,3-24.6,5.4c-11.3,5.7-20.4,14.9-26.2,26.2c-2.4,4.7-4.3,11.4-5.4,24.6
	c-1.1,13.5-1.1,31-1.1,56.7v12c0,25.7,0,43.2,1.1,56.7c1.1,13.2,3,19.9,5.4,24.6c5.7,11.3,14.9,20.4,26.2,26.2
	c4.7,2.4,11.4,4.3,24.6,5.4c13.5,1.1,31,1.1,56.7,1.1h12c25.7,0,43.2,0,56.7-1.1c13.2-1.1,19.9-3,24.6-5.4
	c11.3-5.7,20.4-14.9,26.2-26.2c2.4-4.7,4.3-11.4,5.4-24.6c1.1-13.5,1.1-31,1.1-56.7v-12c0-25.7,0-43.2-1.1-56.7
	C367.8,174.1,365.9,167.4,363.5,162.7z M250,325c-41.4,0-75-33.6-75-75s33.6-75,75-75s75,33.6,75,75S291.4,325,250,325z M332.5,190
	c-12.4,0-22.5-10.1-22.5-22.5s10.1-22.5,22.5-22.5s22.5,10.1,22.5,22.5S344.9,190,332.5,190z"/>
<circle style="fill:#0D5997;" cx="250" cy="250" r="45"/>
<path style="fill:#0D5997;" d="M0,0v500h500V0H0z M400,256c0,50.4,0,75.6-9.8,94.9c-8.6,16.9-22.4,30.7-39.3,39.3
	c-19.3,9.8-44.5,9.8-94.9,9.8h-12c-50.4,0-75.6,0-94.9-9.8c-16.9-8.6-30.7-22.4-39.3-39.3c-9.8-19.3-9.8-44.5-9.8-94.9v-12
	c0-50.4,0-75.6,9.8-94.9c8.6-16.9,22.4-30.7,39.3-39.3c19.3-9.8,44.5-9.8,94.9-9.8h12c50.4,0,75.6,0,94.9,9.8
	c16.9,8.6,30.7,22.4,39.3,39.3c9.8,19.3,9.8,44.5,9.8,94.9V256z"/>
</svg>
