<?xml version="1.0" encoding="utf-8"?>
<!-- Generator: Adobe Illustrator 24.1.1, SVG Export Plug-In . SVG Version: 6.00 Build 0)  -->
<svg version="1.1" id="Camada_1" xmlns="http://www.w3.org/2000/svg" xmlns:xlink="http://www.w3.org/1999/xlink" x="0px" y="0px"
	 viewBox="0 0 1000 800" style="enable-background:new 0 0 1000 800;" xml:space="preserve">
<path style="fill:#262626;" d="M525.7,478.3h-54.9c0,47.3-0.2,94.4-0.2,141.8c0.6,6.4,1,13.9,1,21.5c0,15.8-1.6,31.3-4.6,46.2
	l0.3-1.5c-8.1,16.8-28.8,14.7-38.3,11.7c-8.8-4.7-15.8-11.9-20.2-20.6l-0.1-0.3c-0.9-1.8-1.9-3.4-3.1-4.8l0,0L361,699.8
	c7.2,15.4,18.3,28,32,36.8l0.4,0.2c14.9,8.3,32.7,13.3,51.7,13.3c9.5,0,18.6-1.2,27.4-3.5l-0.7,0.2c19.3-4.8,35-17.4,44.1-34.1
	l0.2-0.4c7-17.9,11.1-38.6,11.1-60.2c0-7.6-0.5-15.1-1.5-22.4l0.1,0.9c0.3-50.2,0-100.4,0-151L525.7,478.3z M745.1,655.2
	c-4.3-26.7-21.7-49.2-73.4-70.2c-18-8.4-38-14.3-43.9-27.9c-1.2-3.1-1.9-6.7-1.9-10.4c0-2.4,0.3-4.8,0.9-7l0,0.2
	c4.1-10.8,14.3-18.3,26.3-18.3c3.9,0,7.6,0.8,10.9,2.2l-0.2-0.1c10.8,3.7,19.3,11.6,23.8,21.7l0.1,0.3
	c25.3-16.5,25.3-16.5,42.9-27.5c-4.2-7.2-9-13.5-14.3-19.1l0,0c-15-15.9-36.2-25.8-59.7-25.8c-3.3,0-6.6,0.2-9.9,0.6l0.4,0
	l-17.2,2.2c-16.7,3.8-31,12.5-41.7,24.5l-0.1,0.1c-10.5,13-16.8,29.7-16.8,47.9c0,25,12,47.2,30.5,61.2l0.2,0.1
	c33.3,24.9,82.1,30.4,88.3,53.9c5.9,28.6-21.2,37.7-48,34.4c-18.7-4.3-34-16.2-42.7-32.3l-0.2-0.3l-44.7,25.7
	c5.3,10.5,11.9,19.4,19.8,27.1l0,0c42.5,42.9,148.8,40.7,167.8-24.5c2.2-7.1,3.5-15.3,3.5-23.8c0-5.9-0.6-11.6-1.8-17.1l0.1,0.5
	L745.1,655.2z M252.1,208.8h495.8c25,0,45.2,20.3,45.2,45.2v495.8c0,25-20.3,45.2-45.2,45.2H252.1c-25,0-45.2-20.3-45.2-45.2
	l0-495.8C206.9,229,227.1,208.8,252.1,208.8z"/>
<g>
	<polygon style="fill:#262626;" points="930.8,38.9 899.1,38.9 899.1,3.2 998.5,3.2 998.5,38.9 966.8,38.9 966.8,110.9 930.8,110.9 
			"/>
	<polygon style="fill:#262626;" points="746.4,3.8 782.4,3.8 782.4,111.5 746.4,111.5 	"/>
	<polygon style="fill:#262626;" points="272.6,2 255.6,74.2 238.6,2 202.6,2 227.9,109.7 247.2,109.7 263.9,109.7 283.2,109.7 
		308.6,2 	"/>
	<polygon style="fill:#262626;" points="52.1,3.2 52.1,75.3 44.9,75.3 47.1,66.9 11.1,66.9 9.3,75.3 9.3,75.3 1.5,110.9 88.1,110.9 
		88.1,75.3 88.1,3.2 	"/>
	<polygon style="fill:#262626;" points="623.2,75.9 623.2,110.3 535.2,110.3 535.2,3.8 623.2,3.8 623.2,41.5 572.9,41.5 572.9,76 
		623.2,76 	"/>
	<path style="fill:#262626;" d="M481.4,41.5h35.1V3.8h-88c0,0,0,18.9,0,37.7c11.8,11.8,17.9,17.4,34.9,34.4c-10,0-34.9,0-34.9,0
		v34.4h88V75.9L481.4,41.5z"/>
	<path style="fill:#262626;" d="M185,3.2h-66L97.6,110.9h36l5-19.1h27.9l4,19.1h36L185,3.2z M144,55.8l2.5-16.3h10.9l2.4,16.3H144z"
		/>
	<path style="fill:#262626;" d="M391.8,3.2h-66l-21.5,107.7h36l5-19.1h27.9l4,19.1h36L391.8,3.2z M350.8,55.8l2.5-16.3h10.9
		l2.4,16.3H350.8z"/>
	<path style="fill:#262626;" d="M637.6,3.2v107.7h36V85.5l21.3,24.8h29.3V86.2L707.4,69l16.9-16.4V3.2H637.6z M686.7,38.9
		l-13.1,13.9v-14L686.7,38.9z"/>
	<path style="fill:#262626;" d="M802.6,3.2v107.7h36V79.8h15.8l29.8-27.2V3.2H802.6z M851.7,38.9l-13.1,13.9v-14L851.7,38.9z"/>
</g>
</svg>
