<?xml version="1.0" encoding="utf-8"?>
<!-- Generator: Adobe Illustrator 24.1.1, SVG Export Plug-In . SVG Version: 6.00 Build 0)  -->
<svg version="1.1" id="Camada_1" xmlns="http://www.w3.org/2000/svg" xmlns:xlink="http://www.w3.org/1999/xlink" x="0px" y="0px"
	 viewBox="0 0 500 500" style="enable-background:new 0 0 500 500;" xml:space="preserve">
<style type="text/css">
	.st0{fill:#FFFFFF;}
	.st1{fill:#0D5997;}
</style>
<rect x="70" y="77" class="st0" width="362" height="362"/>
<g>
	<path class="st1" d="M268.4,228.4v-0.7c-0.1,0.2-0.3,0.4-0.4,0.7H268.4z"/>
	<path class="st1" d="M0,0v500h500V0H0z M168.9,393.3h-64.1V200.5h64.1V393.3z M136.8,174.1L136.8,174.1l-0.4,0
		c-21.5,0-35.4-14.8-35.4-33.3c0-18.9,14.3-33.3,36.3-33.3c21.9,0,35.4,14.4,35.8,33.3C173.1,159.3,159.2,174.1,136.8,174.1z
		 M400,393.3h-64.1V290.1c0-25.9-9.3-43.6-32.5-43.6c-17.7,0-28.3,11.9-32.9,23.5c-1.7,4.1-2.1,9.9-2.1,15.6v107.7h-64.1
		c0,0,0.8-174.7,0-192.8h64.1v27.3c8.5-13.1,23.8-31.8,57.8-31.8c42.2,0,73.8,27.6,73.8,86.8V393.3z"/>
</g>
</svg>
