<?xml version="1.0" encoding="utf-8"?>
<!-- Generator: Adobe Illustrator 24.1.1, SVG Export Plug-In . SVG Version: 6.00 Build 0)  -->
<svg version="1.1" id="Camada_1" xmlns="http://www.w3.org/2000/svg" xmlns:xlink="http://www.w3.org/1999/xlink" x="0px" y="0px"
	 viewBox="0 0 365 350.3" style="enable-background:new 0 0 365 350.3;" xml:space="preserve">
<g id="freepik--Fan--inject-4">
	<g>
		<rect x="144.1" y="64.5" style="fill:#3B3E44;" width="16.6" height="2"/>
	</g>
	<g>
		<path style="fill:#FFFFFF;" d="M151.8,62.4l-2.6,7.8c0,0-77.9,8.3-84.6-3.1s4.7-15.6,31.7-11.4S151.8,62.4,151.8,62.4z"/>
		<path style="fill:#3B3E44;" d="M98.4,73.6c-16.5,0-31.4-1.4-34.3-6.3c-2.2-3.8-2.5-6.9-1-9.2c3.3-4.8,14.7-5.8,33.2-3
			c26.7,4.1,55.2,6.7,55.5,6.7l0.6,0.1l-2.9,8.7h-0.3C147.4,70.9,121.3,73.6,98.4,73.6z M78.8,54.6C71,54.6,65.9,56,64,58.7
			c-1.3,2-1,4.7,1,8.1c6.2,10.6,78.3,3.4,83.8,2.9l2.3-6.9c-4.3-0.4-30.4-2.8-54.9-6.6C89.5,55.1,83.6,54.6,78.8,54.6z"/>
	</g>
	<g>
		<rect x="194.6" y="64.5" style="fill:#3B3E44;" width="16.6" height="2"/>
	</g>
	<g>
		<path style="fill:#FFFFFF;" d="M203.4,62.4l2.6,7.8c0,0,77.9,8.3,84.6-3.1S286,51.5,259,55.6S203.4,62.4,203.4,62.4z"/>
		<path style="fill:#3B3E44;" d="M256.8,73.6c-22.9,0-49-2.7-50.8-2.9h-0.3l-2.9-8.7l0.6-0.1c0.3,0,28.9-2.7,55.6-6.8
			c18.4-2.8,29.8-1.7,33.1,3c1.6,2.3,1.2,5.4-1,9.2C288.2,72.2,273.3,73.6,256.8,73.6z M206.4,69.7c5.4,0.6,77.5,7.7,83.8-2.9
			c2-3.4,2.4-6.2,1-8.1c-2.1-3.1-9.4-6.1-32.1-2.6c-24.5,3.7-50.7,6.3-55,6.7L206.4,69.7z"/>
	</g>
	<g>
		<path style="fill:#FFFFFF;" d="M168,80.8c0,0-2.9,16.8,2.3,18.4s17.8,1.2,21.3-3.4s1.1-9.4-2.7-16.4S174.9,71.8,168,80.8z"/>
		<path style="fill:#3B3E44;" d="M177.4,100.5c-2.9,0-5.5-0.3-7.3-0.9c-5.5-1.7-3-17.2-2.6-19v-0.1l0.1-0.1
			c3.6-4.7,8.4-7.2,13.2-6.9c3.7,0.3,6.8,2.3,8.5,5.5c4,7.4,6.3,12.2,2.7,16.9C189.6,99.3,183.1,100.5,177.4,100.5z M168.5,81
			c-0.8,4.6-1.9,16.5,2,17.7c4.9,1.5,17.4,1.2,20.8-3.2c3.3-4.3,1.1-8.8-2.7-15.9c-1.6-2.9-4.4-4.7-7.7-5
			C176.3,74.3,171.9,76.6,168.5,81z"/>
	</g>
	<g>
		<polyline style="fill:#FFFFFF;" points="175.2,15.7 175.2,68.3 180,68.3 180,18.1 		"/>
		<polygon style="fill:#3B3E44;" points="180.5,68.8 174.7,68.8 174.7,15.7 175.7,15.7 175.7,67.8 179.5,67.8 179.5,18.1 
			180.5,18.1 		"/>
	</g>
	<g>
		<path style="fill:#FFFFFF;" d="M163.4,71.5c9.5,3,19.6,3,29.1,0h7.5v-6.8c0-5-9.9-9-22-9s-22,4-22,9v6.8H163.4z"/>
		<path style="fill:#3B3E44;" d="M178,74.3c-4.9,0-9.8-0.8-14.6-2.3h-7.8v-7.3c0-5.3,9.9-9.5,22.5-9.5c12.6,0,22.5,4.2,22.5,9.5V72
			h-7.9C187.8,73.5,182.9,74.3,178,74.3z M156.5,71h7.1c9.4,3,19.4,3,28.8,0h0.2h7v-6.3c0-4.6-9.8-8.5-21.5-8.5s-21.5,3.9-21.5,8.5
			V71H156.5z"/>
	</g>
	<g>
		<ellipse style="fill:#FFFFFF;" cx="178" cy="71.5" rx="22" ry="9"/>
		<path style="fill:#3B3E44;" d="M178,81c-12.6,0-22.5-4.2-22.5-9.5S165.4,62,178,62s22.5,4.2,22.5,9.5S190.6,81,178,81z M178,63
			c-11.7,0-21.5,3.9-21.5,8.5S166.3,80,178,80c11.7,0,21.5-3.9,21.5-8.5S189.7,63,178,63z"/>
	</g>
	<g>
		<ellipse style="fill:#FFFFFF;" cx="178" cy="71.5" rx="22" ry="9"/>
		<path style="fill:#3B3E44;" d="M178,81c-12.6,0-22.5-4.2-22.5-9.5S165.4,62,178,62s22.5,4.2,22.5,9.5S190.6,81,178,81z M178,63
			c-11.7,0-21.5,3.9-21.5,8.5S166.3,80,178,80c11.7,0,21.5-3.9,21.5-8.5S189.7,63,178,63z"/>
	</g>
</g>
<g id="freepik--Coffee--inject-4">
	<g>
		<polygon style="fill:#FFB30D;" points="50.9,302.7 29.6,302.7 26.4,267.4 54.1,267.4 		"/>
		<path style="fill:#3B3E44;" d="M50.9,303.2H29.6c-0.3,0-0.5-0.2-0.5-0.5l-3.2-35.3c0-0.1,0-0.3,0.1-0.4s0.2-0.2,0.4-0.2h27.7
			c0.1,0,0.3,0.1,0.4,0.2s0.1,0.2,0.1,0.4l-3.2,35.3C51.4,303,51.2,303.2,50.9,303.2z M30.1,302.2h20.4l3.1-34.3H26.9L30.1,302.2z"
			/>
	</g>
	<g>
		<path style="fill:#FFFFFF;" d="M26.5,266.1h27.6c0.8,0,1.5,0.7,1.5,1.5v0.1c0,0.8-0.7,1.5-1.5,1.5H26.5c-0.8,0-1.5-0.7-1.5-1.5
			v-0.1C25,266.8,25.7,266.1,26.5,266.1z"/>
		<path style="fill:#3B3E44;" d="M54.1,269.7H26.5c-1.1,0-2-0.9-2-2v-0.1c0-1.1,0.9-2,2-2h27.6c1.1,0,2,0.9,2,2v0.1
			C56.1,268.8,55.2,269.7,54.1,269.7z M26.5,266.6c-0.5,0-1,0.5-1,1v0.1c0,0.5,0.5,1,1,1h27.6c0.5,0,1-0.5,1-1v-0.1c0-0.5-0.5-1-1-1
			H26.5z"/>
	</g>
	<g>
		<path style="fill:#3B3E44;" d="M27.8,217.3c-0.1,0-0.1,0-0.2,0c-0.3-0.1-0.4-0.4-0.3-0.6c0.4-1,1-1.8,2-2.7c0.2-0.2,0.5-0.2,0.7,0
			s0.2,0.5,0,0.7c-0.9,0.8-1.4,1.5-1.8,2.3C28.2,217.2,28,217.3,27.8,217.3z"/>
	</g>
	<g>
		<path style="fill:#3B3E44;" d="M35.2,264.7c-0.2,0-0.5-0.2-0.5-0.4c0-0.3,0.1-0.5,0.4-0.6c0.1,0,6.1-1.1,10.5-8.2
			c3.7-6.1-0.3-9.4-8.3-16c-1.1-0.9-2.4-2-3.7-3c-7.8-6.6-7.7-13.7-7.3-16.5c0-0.3,0.3-0.5,0.6-0.4c0.3,0,0.5,0.3,0.4,0.6
			c-0.4,2.6-0.5,9.3,6.9,15.5c1.3,1.1,2.5,2.1,3.7,3c8.2,6.7,12.7,10.5,8.6,17.3C41.9,263.6,35.5,264.7,35.2,264.7
			C35.3,264.7,35.2,264.7,35.2,264.7z"/>
	</g>
	<g>
		<path style="fill:#3B3E44;" d="M48.6,263.5c-0.2,0-0.3-0.1-0.4-0.2c-0.2-0.2-0.1-0.5,0.1-0.7c2.2-1.4,3.8-3.7,4.5-6.1
			c0.8-3.2,1-9.5-7.7-14.9c-2.1-1.3-3.9-2.4-5.4-3.3c-4.1-2.4-6.9-4-9.4-7.3c-0.2-0.2-0.1-0.5,0.1-0.7s0.5-0.1,0.7,0.1
			c2.4,3.2,5.1,4.7,9.1,7.1c1.6,0.9,3.4,2,5.5,3.3c9.2,5.8,9,12.6,8.1,16c-0.7,2.7-2.5,5.1-4.9,6.7
			C48.8,263.5,48.7,263.5,48.6,263.5z"/>
	</g>
	<g>
		<path style="fill:#3B3E44;" d="M43.3,265.5c-0.2,0-0.5-0.2-0.5-0.4c0-0.3,0.1-0.5,0.4-0.6c1.2-0.2,2.3-0.5,3.3-1
			c0.3-0.1,0.5,0,0.7,0.2c0.1,0.3,0,0.5-0.2,0.7C45.8,264.9,44.7,265.3,43.3,265.5C43.4,265.5,43.3,265.5,43.3,265.5z"/>
	</g>
</g>
<g id="freepik--Character--inject-4">
	<g>
		<path style="fill:#3B3E44;" d="M135.4,208.2c-4.8-5.3-6.7-11.2-5.3-19.3c2.5-14,17.9-29.6,17.9-39.4s6.9-32.6,27.8-33.9
			c20.9-1.4,31.5,9.2,36,32.2s4.2,27.1,9.4,37.8c2.1,4.4,4.5,8.9,5.4,13.8c1.8,9.7-8.8,14.4-16.2,17.1c-20.9,7.5-47.1,12.4-66.8-1.1
			C140.6,213.3,137.9,210.9,135.4,208.2z"/>
		<path style="fill:#3B3E44;" d="M173.5,224.4c-11.8,0-21.8-2.9-30.2-8.6c-3-2.1-5.7-4.5-8.3-7.3l0,0c-5.1-5.7-6.8-11.7-5.4-19.7
			c1.3-7.1,5.7-14.4,10-21.5c4.1-6.7,7.9-13.1,7.9-17.8c0-10.2,7.1-33.1,28.3-34.4c20.6-1.4,31.8,8.7,36.5,32.6
			c1.1,5.6,1.9,10.1,2.6,13.8c2.1,11.6,2.9,15.9,6.8,23.9c0.3,0.6,0.6,1.1,0.8,1.7c1.9,3.9,3.8,7.9,4.6,12.2
			c1.8,9.7-7.9,14.5-16.5,17.7C196.8,221.9,184.4,224.4,173.5,224.4z M135.8,207.9c2.6,2.8,5.2,5.1,8.1,7.1
			c15.8,10.8,38.1,11.2,66.3,1c8.3-3,17.5-7.6,15.9-16.5c-0.8-4.2-2.7-8.1-4.5-12c-0.3-0.6-0.6-1.1-0.8-1.7
			c-4-8.2-4.8-12.5-6.9-24.2c-0.7-3.6-1.5-8.2-2.6-13.7c-4.6-23.3-15.5-33.1-35.5-31.8c-20.5,1.3-27.3,23.5-27.3,33.4
			c0,5-3.9,11.5-8.1,18.3c-4.2,7-8.6,14.2-9.8,21.1C129.3,196.6,130.9,202.5,135.8,207.9z"/>
	</g>
	<g>
		<path style="fill:#FFFFFF;" d="M214.8,167.3h-0.1c-1.3-0.3-2.6-0.7-3.7-1.2c-0.3-0.1-0.4-0.4-0.2-0.7c0.1-0.3,0.4-0.4,0.7-0.2
			c1.1,0.5,2.2,0.9,3.5,1.2c0.3,0.1,0.4,0.3,0.4,0.6C215.2,167.1,215,167.3,214.8,167.3z"/>
	</g>
	<g>
		<path style="fill:#FFFFFF;" d="M206.3,163.7c-0.1,0-0.2,0-0.2-0.1c-1.7-0.9-3.5-2-5.8-3.5c-9.8-6.4-17.9-25.3-18.2-26.1
			c-0.1-0.3,0-0.5,0.3-0.7c0.3-0.1,0.5,0,0.7,0.3c0.1,0.2,8.3,19.4,17.8,25.7c2.3,1.5,4.1,2.6,5.8,3.5c0.2,0.1,0.3,0.4,0.2,0.7
			C206.7,163.6,206.5,163.7,206.3,163.7z"/>
	</g>
	<g>
		<path style="fill:#FFFFFF;" d="M143.9,166.9c-0.2,0-0.4-0.1-0.5-0.3c-0.1-0.3,0-0.5,0.3-0.7c12.3-5.5,21.4-18.9,25.7-26.4
			c0.1-0.2,0.4-0.3,0.7-0.2c0.2,0.1,0.3,0.4,0.2,0.7c-4.4,7.6-13.5,21.2-26.1,26.8C144,166.9,144,166.9,143.9,166.9z"/>
	</g>
	<g>
		<path style="fill:#FFFFFF;" d="M171.8,136.6c-0.1,0-0.2,0-0.2-0.1c-0.2-0.1-0.3-0.4-0.2-0.7c1.1-2.1,1.7-3.4,1.7-3.4
			c0.1-0.3,0.4-0.4,0.7-0.2c0.3,0.1,0.4,0.4,0.2,0.7c0,0-0.6,1.3-1.7,3.4C172.2,136.5,172,136.6,171.8,136.6z"/>
	</g>
	<g>
		<path style="fill:#FFFFFF;" d="M137.9,200.6c-0.3,0-0.5-0.2-0.5-0.4c-1.9-18,13.5-33.6,13.6-33.7c0.2-0.2,0.5-0.2,0.7,0
			s0.2,0.5,0,0.7s-15.2,15.3-13.4,32.9C138.4,200.3,138.2,200.6,137.9,200.6L137.9,200.6z"/>
	</g>
	<g>
		<path style="fill:#FFFFFF;" d="M150.6,202.5c-0.2,0-0.4-0.2-0.5-0.4c-2.2-12.4,4.6-31.4,4.9-32.2c0.1-0.3,0.4-0.4,0.6-0.3
			c0.3,0.1,0.4,0.4,0.3,0.6c-0.1,0.2-7,19.5-4.9,31.6C151.1,202.2,151,202.4,150.6,202.5C150.7,202.5,150.6,202.5,150.6,202.5z"/>
	</g>
	<g>
		<path style="fill:#1365A8;" d="M162.3,189.6c0,0-35.5,9.6-38.2,10.5s-2.3,7.1-2.3,8.5s-7.9,41.7-7.9,41.7
			c-2.5,1.6-4.9,3.4-7.1,5.4c-3.1,2.9-1.9,6.7-1.9,7.7s0.2,1.3-0.8,2.3s-3.1-0.8-2.7,5.2s-1.7,20,3.6,20.7s8.1,0.2,15.9-2.5
			c4.6-1.5,8.5-4.8,10.9-9v22.7h96.4c0,0,9.8-28.6,10.4-47.4s3.1-46.5-0.4-51.7s-21.7-10.9-37.8-12.9S165.1,188.9,162.3,189.6z"/>
	</g>
	<g>
		<g>
			<g>
				<g>
					<g>
						<defs>
							<path id="SVGID_1_" d="M162.3,189.6c0,0-35.5,9.6-38.2,10.5s-2.3,7.1-2.3,8.5s-7.9,41.7-7.9,41.7c-2.5,1.6-4.9,3.4-7.1,5.4
								c-3.1,2.9-1.9,6.7-1.9,7.7s0.2,1.3-0.8,2.3s-3.1-0.8-2.7,5.2s-1.7,20,3.6,20.7s8.1,0.2,15.9-2.5c4.6-1.5,8.5-4.8,10.9-9v22.7
								h96.4c0,0,9.8-28.6,10.4-47.4s3.1-46.5-0.4-51.7s-21.7-10.9-37.8-12.9S165.1,188.9,162.3,189.6z"/>
						</defs>
						<clipPath id="SVGID_2_">
							<use xlink:href="#SVGID_1_"  style="overflow:visible;"/>
						</clipPath>
						<g style="clip-path:url(#SVGID_2_);">
							<g style="opacity:0.24;enable-background:new    ;">
								<path d="M234.6,200.5c0.5,0.6,0.7,1.1,0.3,1.3c-1.3,0.6-7.5,2.6-8.3,5.3s-0.4-8-1.9-4.9s-3.4,15.4-11.3,40.2
									c-6.3,19.8-9.7,45.1-7.6,60.3h22.4c0,0,9.8-28.6,10.4-47.4s3.1-46.5-0.4-51.7C237.3,202.4,236,201.3,234.6,200.5z"/>
							</g>
							<g>
								<path style="fill:#1365A8;" d="M163.6,184.3c-1.3,0.9-2.4,2.2-3.1,3.6c-1.3,2.7-12.7,23.6-13.6,24.6s5.2,0.8,7.7-0.4
									s7.1-1.1,7.1-1.1l4.4,3.5l13.6,5.4c0,0,6.1-4.4,9.2-6.9s4.4-3.5,4.4-3.5c2.7,0.9,5.2,2.1,7.7,3.5c3.1,1.9,1.9,2.9,3.1,1.9
									s0.6-2.9-1-5.6s-6.3-17.5-12.3-23S170.7,178.9,163.6,184.3z"/>
								<path style="fill:#3B3E44;" d="M179.7,220.4c-0.1,0-0.1,0-0.2,0l-13.6-5.4c0,0-0.1,0-0.1-0.1l-4.3-3.4c-0.8,0-4.6,0-6.7,1.1
									c-2.2,1-7.6,1.5-8.4,0.5c-0.2-0.2-0.2-0.6,0.1-0.9c0.8-0.9,11.9-21.2,13.5-24.5c0.8-1.5,1.9-2.9,3.3-3.8
									c7.4-5.6,21.7-3.6,27.8,2c4.5,4.1,8.3,13.3,10.5,18.9c0.8,2,1.5,3.6,1.9,4.3c1.4,2.3,2.5,4.9,0.9,6.2
									c-0.4,0.4-0.7,0.6-1,0.5c-0.3,0-0.5-0.3-0.6-0.5c-0.2-0.3-0.7-1-2.1-1.9c-2.7-1.5-5-2.6-7.3-3.4c-0.5,0.4-1.8,1.4-4.2,3.3
									c-3.1,2.5-9.2,6.9-9.2,6.9C179.9,220.4,179.8,220.4,179.7,220.4z M166.4,214.1l13.3,5.3c1.1-0.8,6.2-4.5,9-6.7
									c3.1-2.5,4.4-3.5,4.4-3.5c0.1-0.1,0.3-0.1,0.5-0.1c2.5,0.8,5,2,7.8,3.5c1.5,0.9,2.1,1.7,2.4,2.1c0.1,0,0.1-0.1,0.2-0.1
									c0.8-0.7,0.5-2.2-1.1-5c-0.4-0.8-1.1-2.4-1.9-4.4c-2.2-5.4-6-14.5-10.3-18.5c-5.8-5.3-19.7-7.2-26.6-2l0,0
									c-1.2,0.8-2.3,2.1-2.9,3.4c-1,2-11.6,21.6-13.5,24.4c1.1,0.2,4.9,0,6.9-0.9c2.6-1.2,7.1-1.2,7.3-1.1c0.1,0,0.2,0,0.3,0.1
									L166.4,214.1z M163.6,184.3L163.6,184.3L163.6,184.3z"/>
							</g>
							<g>
								<polygon style="fill:#1365A8;" points="191.4,232.1 217.9,232.3 217.4,239.7 203.7,246.7 191.4,239.9 								"/>
								<path style="fill:#3B3E44;" d="M203.7,247.2c-0.1,0-0.2,0-0.2-0.1l-12.3-6.8c-0.2-0.1-0.3-0.3-0.3-0.4v-7.8
									c0-0.1,0.1-0.3,0.1-0.4c0.1-0.1,0.2-0.2,0.4-0.1l26.5,0.2c0.1,0,0.3,0.1,0.4,0.2c0.1,0.1,0.1,0.2,0.1,0.4l-0.5,7.4
									c0,0.2-0.1,0.3-0.3,0.4l-13.7,7C203.9,247.2,203.8,247.2,203.7,247.2z M191.9,239.6l11.8,6.5l13.2-6.8l0.4-6.6l-25.5-0.2
									v7.1H191.9z"/>
							</g>
							<g>
								<polygon style="fill:#1365A8;" points="131.9,229.8 158.4,229.9 157.8,237.4 144.2,244.3 131.9,237.6 								"/>
								<path style="fill:#3B3E44;" d="M144.2,244.8c-0.1,0-0.2,0-0.2-0.1l-12.3-6.7c-0.2-0.1-0.3-0.3-0.3-0.4v-7.8
									c0-0.1,0.1-0.3,0.1-0.4s0.3-0.2,0.4-0.1l26.5,0.1c0.1,0,0.3,0.1,0.4,0.2s0.1,0.2,0.1,0.4l-0.6,7.5c0,0.2-0.1,0.3-0.3,0.4
									l-13.6,6.9C144.4,244.8,144.3,244.8,144.2,244.8z M132.4,237.3l11.8,6.4l13.1-6.7l0.5-6.7l-25.5-0.1L132.4,237.3
									L132.4,237.3z"/>
							</g>
							<g style="opacity:0.24;enable-background:new    ;">
								<path d="M132.2,287.2c0,0-1.5-56.8-0.4-63.2s-6.8-25.6-6.4-15.4s3,25.5,3.2,29.3s-8.9,1.9-8.1,6.8c0.8,4.9,6,4.9,7.5,12.4
									s-11.3,7.1-11.3,11.3s4.5,9.8,0.8,13.2s-5.9-1.1-5.9-1.1c1.3,3.6,1.6,7.4,0.7,11.2c2.9-0.6,5.8-1.4,8.6-2.4
									c4.6-1.5,8.5-4.8,10.9-9v8.2L132.2,287.2z"/>
							</g>
						</g>
					</g>
				</g>
			</g>
		</g>
	</g>
	<g>
		<path style="fill:#3B3E44;" d="M228.2,303.3h-96.4c-0.3,0-0.5-0.2-0.5-0.5v-21c-2.5,3.6-6.2,6.4-10.2,7.7
			c-8,2.8-10.9,3.2-16.1,2.5c-4.4-0.6-4.2-9-4-15.7c0.1-2.1,0.1-4,0-5.5c-0.3-4.5,0.8-5.1,2.1-5.3c0.3-0.1,0.6-0.1,0.7-0.3
			c0.7-0.7,0.7-0.9,0.7-1.5c0-0.1,0-0.3,0-0.4s0-0.4-0.1-0.6c-0.2-1.6-0.7-4.8,2.1-7.4c2.1-1.9,4.4-3.7,7-5.3
			c3.2-16.1,7.8-40.3,7.8-41.4v-0.5c0-2.3-0.2-7.5,2.6-8.5c2.7-0.9,36.8-10.1,38.2-10.5l0,0c2.8-0.7,22-0.8,38.3,1.2
			c15.4,1.9,34.4,7.5,38.2,13.1c2.8,4.1,1.9,21.4,1.1,38c-0.2,5-0.5,9.7-0.6,14c-0.6,18.7-10.3,47.3-10.4,47.5
			C228.6,303.2,228.4,303.3,228.2,303.3z M132.3,302.3h95.5c1.1-3.3,9.7-29.5,10.3-46.9c0.1-4.3,0.4-9,0.6-14
			c0.8-15.7,1.7-33.5-0.9-37.4c-3.2-4.8-20.3-10.6-37.4-12.7c-16.2-2-35.2-1.9-37.9-1.2c-0.6,0.2-35.5,9.6-38.2,10.5
			c-2.1,0.7-2,5.8-2,7.5c0,0.2,0,0.4,0,0.5c0,1.4-7.1,37.7-7.9,41.8c0,0.1-0.1,0.3-0.2,0.3c-2.6,1.7-4.9,3.5-7,5.3
			c-2.4,2.2-2,5.1-1.8,6.6c0,0.3,0.1,0.6,0.1,0.8c0,0.1,0,0.3,0,0.4c0,0.8,0,1.3-1,2.3c-0.4,0.4-0.8,0.5-1.2,0.5
			c-0.8,0.2-1.6,0.3-1.3,4.3c0.1,1.5,0,3.5,0,5.6c-0.2,6-0.4,14.2,3.2,14.7c5.1,0.7,7.8,0.3,15.7-2.5c4.4-1.4,8.3-4.6,10.6-8.8
			c0.1-0.2,0.3-0.3,0.6-0.2c0.2,0.1,0.4,0.3,0.4,0.5v22.1L132.3,302.3L132.3,302.3z M113.9,250.3L113.9,250.3L113.9,250.3z"/>
	</g>
	<g>
		<path style="fill:#3B3E44;" d="M131.9,280.9c-0.3,0-0.5-0.2-0.5-0.5c0-0.2-1.7-21-6.2-26.2c-0.2-0.2-0.2-0.5,0.1-0.7
			c0.2-0.2,0.5-0.2,0.7,0.1c2.7,3.2,4.5,11.7,5.4,18.2v-24.6c0-0.3,0.2-0.5,0.5-0.5s0.5,0.2,0.5,0.5v33.2
			C132.4,280.7,132.2,280.9,131.9,280.9L131.9,280.9z"/>
	</g>
	<g>
		<path style="fill:#3B3E44;" d="M117.9,289c-0.1,0-0.2,0-0.2-0.1c-0.2-0.1-0.3-0.4-0.2-0.7c0,0,2.4-4.7,0.4-11.9
			c-2-7.2-11.9-10.7-12-10.8c-0.3-0.1-0.4-0.4-0.3-0.6c0.1-0.3,0.4-0.4,0.6-0.3c0.4,0.2,10.5,3.8,12.6,11.4s-0.3,12.5-0.4,12.7
			C118.3,288.9,118.1,289,117.9,289z"/>
	</g>
	<g>
		<path style="fill:#1365A8;" d="M93.8,277.7c0,0,7.4-3.4,8-4s7.1-0.3,9.8,6.6s0.8,10.3-0.6,11s-8.5,2.8-10.5,2.8
			S90.3,280.3,93.8,277.7z"/>
		<path style="fill:#3B3E44;" d="M100.5,294.6c-1.8,0-5.8-6.5-7.4-11.1c-1-3.2-0.9-5.2,0.4-6.2c0,0,0.1,0,0.1-0.1
			c3.6-1.6,7.5-3.5,7.9-3.9c0.5-0.5,1.8-0.4,2.9-0.2c1.6,0.3,5.7,1.7,7.8,7c2.7,6.9,1,10.7-0.8,11.6
			C109.8,292.5,102.6,294.6,100.5,294.6z M94.1,278.1c-0.7,0.6-0.8,2.1-0.2,4.3c1.4,4.9,5.6,11.1,6.6,11.1c1.9,0,9-2.1,10.3-2.7
			c1-0.5,3.1-3.4,0.4-10.4c-1.5-3.8-4-5.3-5.9-6c-1.6-0.6-2.9-0.5-3.1-0.4C101.5,274.7,95.9,277.3,94.1,278.1z"/>
	</g>
	<g>
		<path style="fill:#FFFFFF;" d="M164.7,187.7c0,0-3.3,114.7-1.9,114.7h23.4c0,0,0.2-83.6,1.7-91.5s5.2-21.9,4.6-25.7
			s-26.7-1.7-26.7-1.7C165.3,184.8,164.9,186.3,164.7,187.7z"/>
	</g>
	<g>
		<g>
			<g>
				<g>
					<g>
						<defs>
							<path id="SVGID_3_" d="M164.7,187.7c0,0-3.3,114.7-1.9,114.7h23.4c0,0,0.2-83.6,1.7-91.5s5.2-21.9,4.6-25.7
								s-26.7-1.7-26.7-1.7C165.3,184.8,164.9,186.3,164.7,187.7z"/>
						</defs>
						<clipPath id="SVGID_4_">
							<use xlink:href="#SVGID_3_"  style="overflow:visible;"/>
						</clipPath>
						<g style="clip-path:url(#SVGID_4_);">
							<g>
								<path style="fill:#D3D3D3;" d="M164.7,187.7c0,0-3.3,114.7-1.9,114.7h23.4c0,0,0.2-83.6,1.7-91.5s5.2-21.9,4.6-25.7
									s-26.7-1.7-26.7-1.7C165.3,184.8,164.9,186.3,164.7,187.7z"/>
							</g>
							<g style="opacity:0.7;enable-background:new    ;">
								<path style="fill:#FFFFFF;" d="M164.7,187.7c0,0-3.3,114.7-1.9,114.7h23.4c0,0,0.2-83.6,1.7-91.5s5.2-21.9,4.6-25.7
									s-26.7-1.7-26.7-1.7C165.3,184.8,164.9,186.3,164.7,187.7z"/>
							</g>
						</g>
					</g>
				</g>
			</g>
		</g>
	</g>
	<g>
		<path style="fill:#3B3E44;" d="M186.2,302.9h-23.4c-0.1,0-0.3-0.1-0.4-0.2c-1.3-1.4,0.8-80.9,1.8-115.1c0,0,0,0,0-0.1
			c0.2-1.4,0.6-2.9,1.1-4.3c0.1-0.2,0.2-0.3,0.4-0.3c6.2-0.5,26.6-1.8,27.2,2.1c0.4,2.8-1.2,10.4-2.9,17.8c-0.7,3-1.3,5.8-1.7,8.1
			c-1.5,7.8-1.7,90.6-1.7,91.4C186.7,302.7,186.5,302.9,186.2,302.9z M163.2,302.1L163.2,302.1L163.2,302.1z M163.2,301.9h22.5
			c0-7.6,0.3-83.5,1.7-91.1c0.4-2.3,1.1-5.2,1.7-8.1c1.5-6.9,3.3-14.8,2.9-17.4c-0.3-2.1-13.3-2.3-25.8-1.3c-0.4,1.2-0.8,2.5-1,3.8
			C164.3,218.1,162.3,296.3,163.2,301.9z"/>
	</g>
	<g>
		<path style="fill:#FFB30D;" d="M187.8,211.9c-7.7,2.5-15.9,2.8-23.8,0.9c-0.9,34.3-2.2,89.7-1.3,89.7h23.4
			C186.3,302.4,186.4,224.1,187.8,211.9z"/>
	</g>
	<g>
		<path style="fill:#3B3E44;" d="M186.1,303h-23.4c-0.1,0-0.3-0.1-0.4-0.2c-0.3-0.3-1.2-1.2,1.2-90.1c0-0.2,0.1-0.3,0.2-0.4
			c0.1-0.1,0.3-0.1,0.4-0.1c7.8,1.9,15.9,1.6,23.5-0.9c0.2-0.1,0.3,0,0.5,0.1c0.1,0.1,0.2,0.3,0.2,0.4c-1,8.7-1.3,51.9-1.5,75.1
			c-0.1,15.7-0.1,15.7-0.5,15.9C186.3,303,186.2,303,186.1,303z M163.1,302h22.6c0-1.6,0.1-7.6,0.1-14.9c0.2-22.6,0.5-64.2,1.4-74.5
			c-7.4,2.2-15.2,2.5-22.7,0.8C163.1,265.7,162.6,298.4,163.1,302z"/>
	</g>
	<g>
		<path style="fill:#FFFFFF;" d="M175.9,138.1c0,0-3.5,10.9-18.4,20.7c0,0-1,13.6,3.1,23.8s14.8,18.2,19.4,17.3
			c4.6-0.9,13.6-11.3,16.7-18.6s3.1-20.4,3.1-20.4S184.1,150.8,175.9,138.1z"/>
		<path style="fill:#3B3E44;" d="M179.2,200.5c-5.4,0-15.3-8.1-19.1-17.7c-4.1-10.2-3.1-23.9-3.1-24c0-0.2,0.1-0.3,0.2-0.4
			c14.6-9.6,18.2-20.3,18.2-20.4c0.1-0.2,0.2-0.3,0.4-0.3s0.4,0.1,0.5,0.2c8,12.5,23.6,22.5,23.8,22.7c0.1,0.1,0.2,0.3,0.2,0.4
			c0,0.5,0,13.3-3.1,20.6s-12.1,17.9-17.1,18.9C179.8,200.4,179.5,200.5,179.2,200.5z M158,159.1c-0.1,1.9-0.6,14.1,3.1,23.3
			c4.1,10.2,14.6,17.8,18.8,17s13.2-10.9,16.3-18.3c2.8-6.6,3-18,3.1-19.9c-1.9-1.3-15.5-10.6-23.3-22
			C174.8,142,170.4,150.9,158,159.1z"/>
	</g>
	<g>
		<path style="fill:#3B3E44;" d="M176.4,182.9c-0.5,0-0.9-0.1-1.3-0.4c-1.1-0.7-1-4.9-0.8-7.4c0-0.3,0.3-0.5,0.5-0.5
			c0.3,0,0.5,0.3,0.5,0.5c-0.2,3.1,0,6.1,0.4,6.4c0.4,0.2,1,0.3,1.4,0.1s0.7-0.7,0.8-1.4c0-0.3,0.3-0.5,0.5-0.5
			c0.3,0,0.5,0.3,0.5,0.5c-0.1,1-0.6,1.8-1.3,2.2C177.1,182.8,176.7,182.9,176.4,182.9z"/>
	</g>
	<g>
		<path style="fill:#3B3E44;" d="M176.6,186.9c-2.1,0-3.7-0.3-3.9-0.3c-0.3-0.1-0.5-0.3-0.4-0.6s0.3-0.4,0.6-0.4
			c0.1,0,5.8,1,8.9-0.7c0.2-0.1,0.5-0.1,0.7,0.2c0.1,0.2,0.1,0.5-0.2,0.7C180.6,186.7,178.4,186.9,176.6,186.9z"/>
	</g>
	<g>
		<path style="fill:#3B3E44;" d="M161,161.2c-0.1,0-0.2,0-0.3-0.1c-0.2-0.2-0.3-0.5-0.1-0.7c4.4-5.6,12.4-2.4,12.5-2.4
			c0.3,0.1,0.4,0.4,0.3,0.7c-0.1,0.3-0.4,0.4-0.7,0.3c-0.1,0-7.4-3-11.3,2C161.3,161.1,161.1,161.2,161,161.2z"/>
	</g>
	<g>
		<path style="fill:#3B3E44;" d="M180.4,161.4c-0.1,0-0.3,0-0.4-0.1c-0.2-0.2-0.2-0.5,0-0.7c0.1-0.1,6-5.8,14.1-0.7
			c0.2,0.1,0.3,0.5,0.2,0.7c-0.1,0.2-0.5,0.3-0.7,0.2c-7.5-4.7-12.7,0.3-12.9,0.5C180.7,161.4,180.5,161.4,180.4,161.4z"/>
	</g>
	<g>
		<path style="fill:#3B3E44;" d="M168.8,170.7c-3.5,0-5.6-1.9-5.7-2.1c-0.2-0.2-0.2-0.5,0-0.7s0.5-0.2,0.7,0
			c0.1,0.1,3.5,3.2,9.1,0.9c0.3-0.1,0.5,0,0.7,0.3s0,0.5-0.3,0.7C171.5,170.5,170,170.7,168.8,170.7z"/>
	</g>
	<g>
		<path style="fill:#3B3E44;" d="M186.1,170.5c-2.6,0-4.6-0.9-4.7-1c-0.3-0.1-0.4-0.4-0.2-0.7c0.1-0.2,0.4-0.4,0.7-0.2
			c0,0,4.8,2.1,8.7-0.4c0.2-0.2,0.5-0.1,0.7,0.1c0.1,0.2,0.1,0.5-0.2,0.7C189.4,170.2,187.7,170.5,186.1,170.5z"/>
	</g>
	<g>
		<path style="fill:#3B3E44;" d="M170.2,170.4c0,0,2.1,0.1,0.1,0.8s-3.9,0.4-5.9-1.3C164.5,169.8,168.3,170.3,170.2,170.4z"/>
		<path style="fill:#3B3E44;" d="M168.4,172c-1.5,0-2.9-0.6-4.3-1.8c-0.1-0.1-0.2-0.2-0.2-0.4c0-0.1,0-0.3,0.1-0.4
			c0.2-0.2,0.2-0.2,2.7,0c1.2,0.1,2.5,0.3,3.4,0.3c1.2,0.1,1.4,0.4,1.4,0.7c0.1,0.6-0.7,0.9-1.2,1.1C169.7,171.9,169,172,168.4,172z
			 M166.2,170.5c1.1,0.5,2.2,0.7,3.4,0.3c-0.9-0.1-2-0.2-3-0.3C166.5,170.6,166.4,170.6,166.2,170.5z M170.8,171L170.8,171
			L170.8,171z"/>
	</g>
	<g>
		<path style="fill:#3B3E44;" d="M184.1,169.9c0,0-2-0.2-0.2,0.8s3.8,0.9,6-0.6C189.8,170.1,186,170.1,184.1,169.9z"/>
		<path style="fill:#3B3E44;" d="M186.3,171.9c-0.9,0-1.8-0.2-2.7-0.7c-0.4-0.2-1.2-0.6-1-1.2c0-0.2,0.2-0.6,1.5-0.5l0,0
			c1.9,0.2,5.6,0.2,5.7,0.2c0.2,0,0.4,0.1,0.5,0.4c0.1,0.2,0,0.4-0.2,0.6C188.9,171.4,187.6,171.9,186.3,171.9z M184.5,170.4
			c1.1,0.5,2.2,0.6,3.4,0.1C186.8,170.6,185.5,170.5,184.5,170.4z"/>
	</g>
	<g>
		<path style="fill:#FFFFFF;" d="M214.5,236.7l-3.1-31.7c0,0-6.5-1.3-8.8-2.9s-5-3.5-5-3.5s-1.5,1.3-2.7,0s-4.8-4-5.4-6.1
			s3.5-5,6-8.4s5.2-6.7,7.1-6.5s10.2,8.6,14.4,15.2s6,8.3,6.1,10.6s4,14,4,14l1,19.8L214.5,236.7z"/>
		<path style="fill:#3B3E44;" d="M228.1,237.7L228.1,237.7l-13.6-0.5c-0.3,0-0.5-0.2-0.5-0.5l-3.1-31.3c-1.4-0.3-6.6-1.5-8.6-2.9
			c-1.8-1.3-3.9-2.8-4.7-3.3c-0.8,0.5-2,0.9-3.1-0.3c-0.3-0.3-0.8-0.8-1.4-1.3c-1.6-1.5-3.7-3.3-4.2-5s1.2-3.5,3.2-5.6
			c1-1,2-2.1,2.9-3.3c3.1-4.2,5.5-6.9,7.6-6.7c2.3,0.2,10.7,9,14.8,15.4c1.3,2,2.3,3.6,3.2,4.8c2,2.9,2.9,4.3,3,6
			c0.1,1.8,2.6,9.8,4,13.9v0.1l1,19.8c0,0.1,0,0.3-0.1,0.4C228.4,237.6,228.2,237.7,228.1,237.7z M215,236.2l12.6,0.5l-1-19.2
			c-0.3-1-3.9-11.8-4-14.1c-0.1-1.5-0.9-2.7-2.8-5.5c-0.9-1.3-1.9-2.8-3.2-4.9c-4.2-6.7-12.4-14.8-14-15c-1.9-0.2-5.2,4.4-6.6,6.3
			c-0.9,1.2-1.9,2.3-2.9,3.4c-1.7,1.8-3.3,3.5-3,4.6c0.4,1.4,2.4,3.2,3.9,4.6c0.6,0.5,1.1,1,1.4,1.3c0.8,0.9,1.9,0.1,2,0
			c0.2-0.1,0.4-0.2,0.6,0c0,0,2.7,1.9,5,3.5c2.2,1.5,8.5,2.8,8.6,2.8c0.2,0,0.4,0.2,0.4,0.4L215,236.2z"/>
	</g>
	<g>
		<path style="fill:#3B3E44;" d="M197.6,199.2c-0.1,0-0.3,0-0.3-0.1c-0.9-0.9-4-3.9-4-5.3c0-0.3,0.2-0.5,0.5-0.5s0.5,0.2,0.5,0.5
			c0,0.6,1.9,2.8,3.6,4.5c0.2,0.2,0.2,0.5,0,0.7C197.9,199.1,197.7,199.2,197.6,199.2z"/>
	</g>
	<g>
		<path style="fill:#1365A8;" d="M207.9,218.3l3.6,20.4l4-22.7l15.5-1.7c0,0-0.1,24.2-0.1,30.3s2.7,34.2,3.5,44s-4.4,13-11.5,13.2
			s-12.9-6.3-15.2-19.6s0.4-37.4-0.8-41.5c-1.1-4-6-20.5-6-20.5L207.9,218.3z"/>
	</g>
	<g>
		<g>
			<g>
				<g>
					<g>
						<defs>
							<path id="SVGID_5_" d="M207.9,218.3l3.6,20.4l4-22.7l15.5-1.7c0,0-0.1,24.2-0.1,30.3s2.7,34.2,3.5,44s-4.4,13-11.5,13.2
								s-12.9-6.3-15.2-19.6s0.4-37.4-0.8-41.5c-1.1-4-6-20.5-6-20.5L207.9,218.3z"/>
						</defs>
						<clipPath id="SVGID_6_">
							<use xlink:href="#SVGID_5_"  style="overflow:visible;"/>
						</clipPath>
						<g style="clip-path:url(#SVGID_6_);">
							<g style="opacity:0.24;enable-background:new    ;">
								<path d="M225.4,301.6c5.8-0.9,9.7-4.4,9.1-13c-0.8-9.8-3.5-37.8-3.5-44c0-6.2,0.2-30.3,0.2-30.3l-2.5,0.3
									c-1.5,4.8-9.5,33.2-5.4,53.4c4.5,22.2,8.3,24.4,2.3,33.5L225.4,301.6z"/>
							</g>
						</g>
					</g>
				</g>
			</g>
		</g>
	</g>
	<g>
		<path style="fill:#3B3E44;" d="M222.6,302.3c-7.6,0-13.2-7.3-15.4-20c-1.4-7.9-1-19.3-0.7-28.5c0.2-6.1,0.4-11.3-0.1-12.9
			c-1.1-4-6-20.3-6-20.5c0-0.1,0-0.3,0-0.4c0.1-0.1,0.2-0.2,0.3-0.2l7-1.9c0.1,0,0.3,0,0.4,0.1s0.2,0.2,0.2,0.3l3.1,17.6l3.5-19.9
			c0-0.2,0.2-0.4,0.4-0.4l15.5-1.7c0.1,0,0.3,0,0.4,0.1s0.2,0.2,0.2,0.4c0,0-0.1,24.2-0.1,30.3c0,4.5,1.5,20.9,2.5,33
			c0.4,4.5,0.7,8.4,1,11c0.4,4.5-0.5,7.9-2.5,10.2c-2,2.2-5.2,3.4-9.4,3.5C222.8,302.3,222.7,302.3,222.6,302.3z M201.5,220.5
			c0.8,2.8,4.9,16.4,5.9,20c0.5,1.8,0.3,6.8,0.1,13.2c-0.3,9.2-0.7,20.6,0.7,28.3c2.1,12.2,7.3,19.2,14.4,19.2c0.1,0,0.2,0,0.3,0
			c4-0.1,6.9-1.2,8.7-3.2c1.9-2.1,2.6-5.3,2.3-9.4c-0.2-2.6-0.6-6.5-1-11c-1.1-12.1-2.5-28.6-2.5-33.1c0-5.5,0.1-26.1,0.1-29.7
			l-14.6,1.6l-3.9,22.3c0,0.2-0.2,0.4-0.5,0.4c-0.2,0-0.5-0.2-0.5-0.4l-3.5-19.9L201.5,220.5z"/>
	</g>
	<g>
		<path style="fill:#FFFFFF;" d="M85.9,297.6c0,0-0.5,3.1,2.3,3.8s9.5-1,10.1-2.5c0.3-0.8,0.2-1.7-0.4-2.4h-6.1
			C91.7,296.6,87.1,295.1,85.9,297.6z"/>
		<path style="fill:#3B3E44;" d="M89.8,302.1c-0.7,0-1.2-0.1-1.7-0.2c-2.6-0.6-2.9-3.1-2.7-4.4v-0.1c1.2-2.4,4.8-1.7,6-1.4
			c0.1,0,0.2,0,0.3,0.1l0,0h6.1c0.1,0,0.3,0.1,0.4,0.2c0.7,0.8,0.9,1.9,0.5,2.9C98.1,300.7,93.1,302.1,89.8,302.1z M86.4,297.7
			c0,0.4-0.2,2.6,1.9,3.2c2.8,0.7,9.1-1.1,9.5-2.2c0.2-0.6,0.2-1.2-0.2-1.7h-5.8c-0.1,0-0.3,0-0.6-0.1
			C90.3,296.7,87.3,296.1,86.4,297.7z"/>
	</g>
	<g>
		<polygon style="fill:#3B3E44;" points="58.4,264.3 83.8,282 85.7,279.5 60.2,261.6 		"/>
		<path style="fill:#3B3E44;" d="M83.8,282.5c-0.1,0-0.2,0-0.3-0.1l-25.4-17.7c-0.2-0.2-0.3-0.5-0.1-0.7l1.8-2.7
			c0.1-0.1,0.2-0.2,0.3-0.2s0.3,0,0.4,0.1L86,279.1c0.1,0.1,0.2,0.2,0.2,0.3c0,0.1,0,0.3-0.1,0.4l-1.9,2.5
			C84.1,282.4,84,282.5,83.8,282.5z M59.1,264.2l24.6,17.1l1.3-1.7l-24.7-17.3L59.1,264.2z"/>
	</g>
	<g>
		<polygon style="fill:#FFFFFF;" points="64.3,268.4 66.3,265.9 60.2,261.6 58.4,264.3 		"/>
		<path style="fill:#3B3E44;" d="M64.3,268.9c-0.1,0-0.2,0-0.3-0.1l-5.9-4.1c-0.2-0.2-0.3-0.5-0.1-0.7l1.8-2.7
			c0.1-0.1,0.2-0.2,0.3-0.2s0.3,0,0.4,0.1l6.1,4.3c0.1,0.1,0.2,0.2,0.2,0.3s0,0.3-0.1,0.4l-2,2.5C64.6,268.8,64.4,268.9,64.3,268.9z
			 M59.1,264.2l5.1,3.6l1.4-1.7l-5.2-3.7L59.1,264.2z"/>
	</g>
	<g>
		<path style="fill:#FFFFFF;" d="M89.9,297.4c4-0.2,7.8-1.8,10.7-4.5c4.6-4.4,4.9-7.4-1.3-13.8s-19.6,1.1-20.1,3.9
			S89.9,297.4,89.9,297.4z"/>
		<path style="fill:#3B3E44;" d="M89.9,297.9c-0.1,0-0.3-0.1-0.4-0.2c-1.9-2-11.4-11.9-10.8-14.8c0.3-1.8,4.6-4.7,8.9-6
			c3-0.9,8.4-1.9,12,1.8c3.4,3.6,4.9,6.1,4.8,8.4c0,1.9-1.1,3.8-3.6,6.1C98,296,94,297.7,89.9,297.9L89.9,297.9z M92.7,277.1
			c-1.8,0-3.6,0.4-4.8,0.8c-4.5,1.4-8,4.1-8.2,5.2c-0.3,1.8,6.1,9.4,10.4,13.8c3.8-0.2,7.4-1.8,10.2-4.4c2.2-2.1,3.2-3.8,3.2-5.4
			c0-2-1.4-4.4-4.6-7.7C97.2,277.6,94.9,277.1,92.7,277.1z"/>
	</g>
	<g>
		<path style="fill:#FFFFFF;" d="M103.5,285.8c0,0-1.7,3.6-3.4,5s-4.3,1.7-5.8-0.5s-3.1-9.1-4.5-9.2s-8.1-2.4-10-5s-1.8-4.7,2.4-3.4
			s15.6,2.7,15.6,2.7s2.7,1.6,4.5,7.3"/>
		<path style="fill:#3B3E44;" d="M97.2,292.4c-0.2,0-0.4,0-0.6,0c-1.1-0.2-2.1-0.8-2.7-1.8c-0.7-1-1.3-2.7-2-4.4
			c-0.6-1.6-1.6-4.4-2.2-4.5c-1.3-0.1-8.3-2.4-10.4-5.2c-1.2-1.7-1.6-3.1-1-3.9s1.9-0.9,4-0.3c4.1,1.3,15.4,2.7,15.5,2.7
			s0.1,0,0.2,0.1c0.1,0.1,2.9,1.8,4.7,7.6c0.1,0.3-0.1,0.5-0.3,0.6c-0.3,0.1-0.5-0.1-0.6-0.3c-1.6-4.9-3.8-6.7-4.2-7
			c-1.3-0.2-11.6-1.5-15.6-2.7c-1.8-0.5-2.6-0.4-2.8-0.1s0,1.3,1,2.7c1.8,2.4,8.3,4.7,9.6,4.8c1.1,0.1,1.8,1.9,3,5.2
			c0.6,1.7,1.3,3.4,1.8,4.2c0.5,0.8,1.2,1.2,2.1,1.4c1,0.1,2.1-0.2,3-1c1.6-1.3,3.2-4.8,3.3-4.8c0.1-0.2,0.4-0.4,0.7-0.2
			c0.3,0.1,0.4,0.4,0.2,0.7c-0.1,0.2-1.8,3.7-3.5,5.2C99.5,292,98.3,292.4,97.2,292.4z"/>
	</g>
	<g>
		<path style="fill:#FFFFFF;" d="M81.7,294.3c0.6,0.7,2.6,4.1,3.5,4.3s6.6-3.4,8.8-6.2s-1.9-6.6-3.1-7.1S81.7,294.3,81.7,294.3z"/>
		<path style="fill:#3B3E44;" d="M85.2,299.1c-0.1,0-0.1,0-0.2,0c-0.8-0.2-1.7-1.5-3-3.4c-0.3-0.5-0.6-0.9-0.8-1.1s-0.2-0.5,0-0.6
			c5.5-6.5,8.8-9.6,9.8-9.1c0.9,0.4,3.3,2.4,3.9,4.7c0.3,1.2,0.1,2.3-0.6,3.2C92.4,295.2,86.8,299.1,85.2,299.1z M82.3,294.3
			c0.2,0.2,0.4,0.5,0.6,0.8c0.6,0.8,1.9,2.8,2.4,3l0,0c0.8,0,6.2-3.3,8.3-6c0.5-0.7,0.7-1.4,0.4-2.3c-0.5-2-2.7-3.8-3.3-4
			C89.9,285.9,85.8,290.2,82.3,294.3z"/>
	</g>
	<g>
		<path style="fill:#FFFFFF;" d="M78.8,284.3c0,0-5,3-3.8,5.1s5.2,5.2,6.5,4.6s9.9-4.6,9.9-6.8s-0.2-4.8-4.6-4.4
			C84.1,283.1,81.4,283.6,78.8,284.3z"/>
		<path style="fill:#3B3E44;" d="M81.1,294.6c-2,0-5.5-3.1-6.6-4.9c-1.4-2.5,3.4-5.4,4-5.8c0,0,0.1,0,0.1-0.1
			c2.6-0.7,5.3-1.2,8.1-1.5c1.8-0.2,3.1,0.1,4,0.9c1.1,1,1.2,2.6,1.2,4c0,2.1-5.5,5.1-10.2,7.3C81.5,294.5,81.3,294.6,81.1,294.6z
			 M79,284.8c-1.2,0.8-4.3,3-3.6,4.4c1.2,2.1,5,4.8,5.9,4.4c5.7-2.6,9.6-5.2,9.6-6.3c0-1.2-0.1-2.5-0.9-3.2
			c-0.6-0.6-1.7-0.8-3.2-0.7C84.2,283.6,81.5,284.1,79,284.8z"/>
	</g>
	<g>
		<path style="fill:#FFFFFF;" d="M73.8,276c0,0-2.4,4.9-0.2,7.1s16,2.1,16.7-0.4s-4.5-3.1-8.3-4.7S74.3,274.9,73.8,276z"/>
		<path style="fill:#3B3E44;" d="M81.9,285.2c-3.7,0-7.4-0.5-8.6-1.7c-2.4-2.4,0-7.4,0.1-7.7c0.6-1.4,3.5-0.5,8.8,1.8
			c1,0.4,2.2,0.8,3.3,1.1c3.1,1,5.9,1.9,5.3,4.2c-0.2,0.7-1,1.3-2.6,1.7C86.6,284.9,84.3,285.2,81.9,285.2z M74.6,276.1
			c-0.3,0-0.4,0.1-0.4,0.1l0,0c0,0-2.2,4.6-0.3,6.5c1.5,1.5,9.7,1.9,14,0.8c1.3-0.3,1.8-0.7,1.9-1c0.4-1.3-1.5-1.9-4.6-2.9
			c-1.1-0.4-2.3-0.7-3.4-1.2C77.1,276.5,75.3,276.1,74.6,276.1z M73.8,276L73.8,276L73.8,276z"/>
	</g>
	<g>
		<path style="fill:#FFFFFF;" d="M127.2,301.8c0,0-0.4-6.5-6.1-8.8s-8.8-1.4-21.7,2.1c-8.1,2.1-16.4,3.4-24.8,3.8v2.9H127.2z"/>
		<path style="fill:#3B3E44;" d="M127.2,302.3H74.6c-0.3,0-0.5-0.2-0.5-0.5v-2.9c0-0.3,0.2-0.5,0.5-0.5c8.2-0.4,16.5-1.7,24.7-3.8
			l0.6-0.2c12.4-3.4,15.7-4.3,21.4-1.9c5.9,2.4,6.4,9,6.4,9.2c0,0.1,0,0.3-0.1,0.4S127.3,302.3,127.2,302.3z M75.1,301.3h51.5
			c-0.2-1.5-1.3-6.1-5.7-7.8c-5.5-2.2-8.4-1.4-20.8,2l-0.6,0.2c-8.1,2.1-16.3,3.4-24.4,3.8V301.3z"/>
	</g>
	<g>
		<path style="fill:#FFFFFF;" d="M127,301.8c0,0,0.4-6.5,6.1-8.8s8.8-1.4,21.7,2.1c8.1,2.1,16.4,3.4,24.8,3.8v2.9H127z"/>
		<path style="fill:#3B3E44;" d="M179.6,302.3H127c-0.1,0-0.3-0.1-0.4-0.2s-0.1-0.2-0.1-0.4c0-0.3,0.5-6.8,6.4-9.2
			c5.8-2.3,9.1-1.4,21.4,1.9l0.6,0.2c8.2,2.1,16.5,3.4,24.7,3.8c0.3,0,0.5,0.2,0.5,0.5v2.9C180.1,302.1,179.9,302.3,179.6,302.3z
			 M127.6,301.3h51.5v-1.9c-8.1-0.4-16.3-1.7-24.4-3.8l-0.6-0.2c-12.4-3.4-15.4-4.2-20.8-2C128.9,295.2,127.8,299.8,127.6,301.3z"/>
	</g>
	<g>
		<rect x="73.3" y="300.6" style="fill:#3B3E44;" width="108.5" height="2.1"/>
		<path style="fill:#3B3E44;" d="M181.8,303.2H73.3c-0.3,0-0.5-0.2-0.5-0.5v-2.1c0-0.3,0.2-0.5,0.5-0.5h108.5c0.3,0,0.5,0.2,0.5,0.5
			v2.1C182.3,303,182.1,303.2,181.8,303.2z M73.8,302.2h107.5v-1.1H73.8V302.2z"/>
	</g>
</g>
<g id="freepik--Device--inject-4">
	<g>
		<path style="fill:#3B3E44;" d="M358.7,303.2H10c-0.3,0-0.5-0.2-0.5-0.5s0.2-0.5,0.5-0.5h348.7c0.3,0,0.5,0.2,0.5,0.5
			S359,303.2,358.7,303.2z"/>
	</g>
	<g>
		<polygon style="fill:#FFFFFF;" points="354.7,244.7 280.7,244.7 255.6,302.9 329.5,302.9 		"/>
		<path style="fill:#3B3E44;" d="M329.5,303.4h-73.9c-0.2,0-0.3-0.1-0.4-0.2s-0.1-0.3,0-0.5l25.1-58.2c0.1-0.2,0.3-0.3,0.5-0.3h74
			c0.2,0,0.3,0.1,0.4,0.2s0.1,0.3,0,0.5L330,303.1C329.9,303.3,329.7,303.4,329.5,303.4z M256.4,302.4h72.8l24.8-57.2h-73
			L256.4,302.4z"/>
	</g>
	<g>
		<polygon style="fill:#3B3E44;" points="357.5,244.7 283.6,244.7 258.5,302.9 332.4,302.9 		"/>
		<path style="fill:#3B3E44;" d="M332.4,303.4h-73.9c-0.2,0-0.3-0.1-0.4-0.2s-0.1-0.3,0-0.5l25.1-58.2c0.1-0.2,0.3-0.3,0.5-0.3h73.9
			c0.2,0,0.3,0.1,0.4,0.2s0.1,0.3,0,0.5l-25.1,58.2C332.8,303.3,332.6,303.4,332.4,303.4z M259.3,302.4h72.8l24.7-57.2H284
			L259.3,302.4z"/>
	</g>
	<g>
		<path style="fill:#FFB30D;" d="M313.9,280.1c-1.9,3-5.5,4.2-8,2.6s-3-5.3-1.1-8.3s5.5-4.2,8-2.6S315.8,277.1,313.9,280.1z"/>
		<path style="fill:#FFFFFF;" d="M308.4,283.9c-1,0-2-0.3-2.8-0.8c-2.7-1.7-3.3-5.8-1.3-9c1.1-1.8,2.8-3,4.7-3.4
			c1.4-0.3,2.9-0.1,4,0.6c2.7,1.7,3.3,5.8,1.3,9l0,0c-1.1,1.8-2.8,3-4.7,3.4C309.2,283.9,308.8,283.9,308.4,283.9z M310.3,271.6
			c-0.3,0-0.7,0-1.1,0.1c-1.6,0.4-3.1,1.4-4,3c-1.7,2.7-1.3,6.2,0.9,7.6c0.9,0.6,2.1,0.8,3.3,0.5c1.6-0.4,3.1-1.4,4-3l0,0
			c1.7-2.7,1.3-6.2-0.9-7.6C311.9,271.8,311.1,271.6,310.3,271.6z M313.9,280.1L313.9,280.1L313.9,280.1z"/>
	</g>
	<g>
		<rect x="202.6" y="300.6" style="fill:#FFFFFF;" width="54" height="2.1"/>
		<path style="fill:#3B3E44;" d="M256.6,303.2h-54c-0.3,0-0.5-0.2-0.5-0.5v-2.1c0-0.3,0.2-0.5,0.5-0.5h54c0.3,0,0.5,0.2,0.5,0.5v2.1
			C257.1,303,256.9,303.2,256.6,303.2z M203.1,302.2h53v-1.1h-53V302.2z"/>
	</g>
</g>
</svg>
