<?xml version="1.0" encoding="utf-8"?>
<!-- Generator: Adobe Illustrator 24.1.1, SVG Export Plug-In . SVG Version: 6.00 Build 0)  -->
<svg version="1.1" id="Camada_1" xmlns="http://www.w3.org/2000/svg" xmlns:xlink="http://www.w3.org/1999/xlink" x="0px" y="0px"
	 viewBox="0 0 500 374.3" style="enable-background:new 0 0 500 374.3;" xml:space="preserve">
<g id="freepik--Fan--inject-4">
	<g>
		<rect x="217.1" y="76.5" style="fill:#3B3E44;" width="16.6" height="2"/>
	</g>
	<g>
		<path style="fill:#FFFFFF;" d="M224.8,74.4l-2.6,7.8c0,0-77.9,8.3-84.6-3.1s4.7-15.6,31.7-11.4S224.8,74.4,224.8,74.4z"/>
		<path style="fill:#3B3E44;" d="M171.4,85.6c-16.5,0-31.4-1.4-34.3-6.3c-2.2-3.8-2.5-6.9-1-9.2c3.3-4.8,14.7-5.8,33.2-3
			c26.7,4.1,55.2,6.7,55.5,6.7l0.6,0.1l-2.9,8.7h-0.3C220.4,82.9,194.3,85.6,171.4,85.6z M151.8,66.6c-7.8,0-12.9,1.4-14.8,4.1
			c-1.3,2-1,4.7,1,8.1c6.2,10.6,78.3,3.4,83.8,2.9l2.3-6.9c-4.3-0.4-30.4-2.8-54.9-6.6C162.5,67.1,156.6,66.6,151.8,66.6z"/>
	</g>
	<g>
		<rect x="267.6" y="76.5" style="fill:#3B3E44;" width="16.6" height="2"/>
	</g>
	<g>
		<path style="fill:#FFFFFF;" d="M276.4,74.4l2.6,7.8c0,0,77.9,8.3,84.6-3.1S359,63.5,332,67.6S276.4,74.4,276.4,74.4z"/>
		<path style="fill:#3B3E44;" d="M329.8,85.6c-22.9,0-49-2.7-50.8-2.9h-0.3l-2.9-8.7l0.6-0.1c0.3,0,28.9-2.7,55.6-6.8
			c18.4-2.8,29.8-1.7,33.1,3c1.6,2.3,1.2,5.4-1,9.2C361.2,84.2,346.3,85.6,329.8,85.6z M279.4,81.7c5.4,0.6,77.5,7.7,83.8-2.9
			c2-3.4,2.4-6.2,1-8.1c-2.1-3.1-9.4-6.1-32.1-2.6c-24.5,3.7-50.7,6.3-55,6.7L279.4,81.7z"/>
	</g>
	<g>
		<path style="fill:#FFFFFF;" d="M241,92.8c0,0-2.9,16.8,2.3,18.4s17.8,1.2,21.3-3.4s1.1-9.4-2.7-16.4S247.9,83.8,241,92.8z"/>
		<path style="fill:#3B3E44;" d="M250.4,112.5c-2.9,0-5.5-0.3-7.3-0.9c-5.5-1.7-3-17.2-2.6-19v-0.1l0.1-0.1
			c3.6-4.7,8.4-7.2,13.2-6.9c3.7,0.3,6.8,2.3,8.5,5.5c4,7.4,6.3,12.2,2.7,16.9C262.6,111.3,256.1,112.5,250.4,112.5z M241.5,93
			c-0.8,4.6-1.9,16.5,2,17.7c4.9,1.5,17.4,1.2,20.8-3.2c3.3-4.3,1.1-8.8-2.7-15.9c-1.6-2.9-4.4-4.7-7.7-5
			C249.3,86.3,244.9,88.6,241.5,93z"/>
	</g>
	<g>
		<polyline style="fill:#FFFFFF;" points="248.2,27.7 248.2,80.3 253,80.3 253,30.1 		"/>
		<polygon style="fill:#3B3E44;" points="253.5,80.8 247.7,80.8 247.7,27.7 248.7,27.7 248.7,79.8 252.5,79.8 252.5,30.1 
			253.5,30.1 		"/>
	</g>
	<g>
		<path style="fill:#FFFFFF;" d="M236.4,83.5c9.5,3,19.6,3,29.1,0h7.5v-6.8c0-5-9.9-9-22-9s-22,4-22,9v6.8H236.4z"/>
		<path style="fill:#3B3E44;" d="M251,86.3c-4.9,0-9.8-0.8-14.6-2.3h-7.8v-7.3c0-5.3,9.9-9.5,22.5-9.5c12.6,0,22.5,4.2,22.5,9.5V84
			h-7.9C260.8,85.5,255.9,86.3,251,86.3z M229.5,83h7.1c9.4,3,19.4,3,28.8,0h0.2h7v-6.3c0-4.6-9.8-8.5-21.5-8.5s-21.5,3.9-21.5,8.5
			V83H229.5z"/>
	</g>
	<g>
		<ellipse style="fill:#FFFFFF;" cx="251" cy="83.5" rx="22" ry="9"/>
		<path style="fill:#3B3E44;" d="M251,93c-12.6,0-22.5-4.2-22.5-9.5S238.4,74,251,74s22.5,4.2,22.5,9.5S263.6,93,251,93z M251,75
			c-11.7,0-21.5,3.9-21.5,8.5S239.3,92,251,92c11.7,0,21.5-3.9,21.5-8.5S262.7,75,251,75z"/>
	</g>
	<g>
		<ellipse style="fill:#FFFFFF;" cx="251" cy="83.5" rx="22" ry="9"/>
		<path style="fill:#3B3E44;" d="M251,93c-12.6,0-22.5-4.2-22.5-9.5S238.4,74,251,74s22.5,4.2,22.5,9.5S263.6,93,251,93z M251,75
			c-11.7,0-21.5,3.9-21.5,8.5S239.3,92,251,92c11.7,0,21.5-3.9,21.5-8.5S262.7,75,251,75z"/>
	</g>
</g>
<g id="freepik--Coffee--inject-4">
	<g>
		<polygon style="fill:#FFB30D;" points="123.9,314.7 102.6,314.7 99.4,279.4 127.1,279.4 		"/>
		<path style="fill:#3B3E44;" d="M123.9,315.2h-21.3c-0.3,0-0.5-0.2-0.5-0.5l-3.2-35.3c0-0.1,0-0.3,0.1-0.4s0.2-0.2,0.4-0.2h27.7
			c0.1,0,0.3,0.1,0.4,0.2s0.1,0.2,0.1,0.4l-3.2,35.3C124.4,315,124.2,315.2,123.9,315.2z M103.1,314.2h20.4l3.1-34.3H99.9
			L103.1,314.2z"/>
	</g>
	<g>
		<path style="fill:#FFFFFF;" d="M99.5,278.1h27.6c0.8,0,1.5,0.7,1.5,1.5v0.1c0,0.8-0.7,1.5-1.5,1.5H99.5c-0.8,0-1.5-0.7-1.5-1.5
			v-0.1C98,278.8,98.7,278.1,99.5,278.1z"/>
		<path style="fill:#3B3E44;" d="M127.1,281.7H99.5c-1.1,0-2-0.9-2-2v-0.1c0-1.1,0.9-2,2-2h27.6c1.1,0,2,0.9,2,2v0.1
			C129.1,280.8,128.2,281.7,127.1,281.7z M99.5,278.6c-0.5,0-1,0.5-1,1v0.1c0,0.5,0.5,1,1,1h27.6c0.5,0,1-0.5,1-1v-0.1
			c0-0.5-0.5-1-1-1H99.5z"/>
	</g>
	<g>
		<path style="fill:#3B3E44;" d="M100.8,229.3c-0.1,0-0.1,0-0.2,0c-0.3-0.1-0.4-0.4-0.3-0.6c0.4-1,1-1.8,2-2.7
			c0.2-0.2,0.5-0.2,0.7,0s0.2,0.5,0,0.7c-0.9,0.8-1.4,1.5-1.8,2.3C101.2,229.2,101,229.3,100.8,229.3z"/>
	</g>
	<g>
		<path style="fill:#3B3E44;" d="M108.2,276.7c-0.2,0-0.5-0.2-0.5-0.4c0-0.3,0.1-0.5,0.4-0.6c0.1,0,6.1-1.1,10.5-8.2
			c3.7-6.1-0.3-9.4-8.3-16c-1.1-0.9-2.4-2-3.7-3c-7.8-6.6-7.7-13.7-7.3-16.5c0-0.3,0.3-0.5,0.6-0.4c0.3,0,0.5,0.3,0.4,0.6
			c-0.4,2.6-0.5,9.3,6.9,15.5c1.3,1.1,2.5,2.1,3.7,3c8.2,6.7,12.7,10.5,8.6,17.3C114.9,275.6,108.5,276.7,108.2,276.7
			C108.3,276.7,108.2,276.7,108.2,276.7z"/>
	</g>
	<g>
		<path style="fill:#3B3E44;" d="M121.6,275.5c-0.2,0-0.3-0.1-0.4-0.2c-0.2-0.2-0.1-0.5,0.1-0.7c2.2-1.4,3.8-3.7,4.5-6.1
			c0.8-3.2,1-9.5-7.7-14.9c-2.1-1.3-3.9-2.4-5.4-3.3c-4.1-2.4-6.9-4-9.4-7.3c-0.2-0.2-0.1-0.5,0.1-0.7s0.5-0.1,0.7,0.1
			c2.4,3.2,5.1,4.7,9.1,7.1c1.6,0.9,3.4,2,5.5,3.3c9.2,5.8,9,12.6,8.1,16c-0.7,2.7-2.5,5.1-4.9,6.7
			C121.8,275.5,121.7,275.5,121.6,275.5z"/>
	</g>
	<g>
		<path style="fill:#3B3E44;" d="M116.3,277.5c-0.2,0-0.5-0.2-0.5-0.4c0-0.3,0.1-0.5,0.4-0.6c1.2-0.2,2.3-0.5,3.3-1
			c0.3-0.1,0.5,0,0.7,0.2c0.1,0.3,0,0.5-0.2,0.7C118.8,276.9,117.7,277.3,116.3,277.5C116.4,277.5,116.3,277.5,116.3,277.5z"/>
	</g>
</g>
<g id="freepik--Character--inject-4">
	<g>
		<path style="fill:#3B3E44;" d="M208.4,220.2c-4.8-5.3-6.7-11.2-5.3-19.3c2.5-14,17.9-29.6,17.9-39.4s6.9-32.6,27.8-33.9
			c20.9-1.4,31.5,9.2,36,32.2s4.2,27.1,9.4,37.8c2.1,4.4,4.5,8.9,5.4,13.8c1.8,9.7-8.8,14.4-16.2,17.1c-20.9,7.5-47.1,12.4-66.8-1.1
			C213.6,225.3,210.9,222.9,208.4,220.2z"/>
		<path style="fill:#3B3E44;" d="M246.5,236.4c-11.8,0-21.8-2.9-30.2-8.6c-3-2.1-5.7-4.5-8.3-7.3l0,0c-5.1-5.7-6.8-11.7-5.4-19.7
			c1.3-7.1,5.7-14.4,10-21.5c4.1-6.7,7.9-13.1,7.9-17.8c0-10.2,7.1-33.1,28.3-34.4c20.6-1.4,31.8,8.7,36.5,32.6
			c1.1,5.6,1.9,10.1,2.6,13.8c2.1,11.6,2.9,15.9,6.8,23.9c0.3,0.6,0.6,1.1,0.8,1.7c1.9,3.9,3.8,7.9,4.6,12.2
			c1.8,9.7-7.9,14.5-16.5,17.7C269.8,233.9,257.4,236.4,246.5,236.4z M208.8,219.9c2.6,2.8,5.2,5.1,8.1,7.1
			c15.8,10.8,38.1,11.2,66.3,1c8.3-3,17.5-7.6,15.9-16.5c-0.8-4.2-2.7-8.1-4.5-12c-0.3-0.6-0.6-1.1-0.8-1.7
			c-4-8.2-4.8-12.5-6.9-24.2c-0.7-3.6-1.5-8.2-2.6-13.7c-4.6-23.3-15.5-33.1-35.5-31.8c-20.5,1.3-27.3,23.5-27.3,33.4
			c0,5-3.9,11.5-8.1,18.3c-4.2,7-8.6,14.2-9.8,21.1C202.3,208.6,203.9,214.5,208.8,219.9z"/>
	</g>
	<g>
		<path style="fill:#FFFFFF;" d="M287.8,179.3h-0.1c-1.3-0.3-2.6-0.7-3.7-1.2c-0.3-0.1-0.4-0.4-0.2-0.7c0.1-0.3,0.4-0.4,0.7-0.2
			c1.1,0.5,2.2,0.9,3.5,1.2c0.3,0.1,0.4,0.3,0.4,0.6C288.2,179.1,288,179.3,287.8,179.3z"/>
	</g>
	<g>
		<path style="fill:#FFFFFF;" d="M279.3,175.7c-0.1,0-0.2,0-0.2-0.1c-1.7-0.9-3.5-2-5.8-3.5c-9.8-6.4-17.9-25.3-18.2-26.1
			c-0.1-0.3,0-0.5,0.3-0.7c0.3-0.1,0.5,0,0.7,0.3c0.1,0.2,8.3,19.4,17.8,25.7c2.3,1.5,4.1,2.6,5.8,3.5c0.2,0.1,0.3,0.4,0.2,0.7
			C279.7,175.6,279.5,175.7,279.3,175.7z"/>
	</g>
	<g>
		<path style="fill:#FFFFFF;" d="M216.9,178.9c-0.2,0-0.4-0.1-0.5-0.3c-0.1-0.3,0-0.5,0.3-0.7c12.3-5.5,21.4-18.9,25.7-26.4
			c0.1-0.2,0.4-0.3,0.7-0.2c0.2,0.1,0.3,0.4,0.2,0.7c-4.4,7.6-13.5,21.2-26.1,26.8C217,178.9,217,178.9,216.9,178.9z"/>
	</g>
	<g>
		<path style="fill:#FFFFFF;" d="M244.8,148.6c-0.1,0-0.2,0-0.2-0.1c-0.2-0.1-0.3-0.4-0.2-0.7c1.1-2.1,1.7-3.4,1.7-3.4
			c0.1-0.3,0.4-0.4,0.7-0.2c0.3,0.1,0.4,0.4,0.2,0.7c0,0-0.6,1.3-1.7,3.4C245.2,148.5,245,148.6,244.8,148.6z"/>
	</g>
	<g>
		<path style="fill:#FFFFFF;" d="M210.9,212.6c-0.3,0-0.5-0.2-0.5-0.4c-1.9-18,13.5-33.6,13.6-33.7c0.2-0.2,0.5-0.2,0.7,0
			s0.2,0.5,0,0.7s-15.2,15.3-13.4,32.9C211.4,212.3,211.2,212.6,210.9,212.6L210.9,212.6z"/>
	</g>
	<g>
		<path style="fill:#FFFFFF;" d="M223.6,214.5c-0.2,0-0.4-0.2-0.5-0.4c-2.2-12.4,4.6-31.4,4.9-32.2c0.1-0.3,0.4-0.4,0.6-0.3
			c0.3,0.1,0.4,0.4,0.3,0.6c-0.1,0.2-7,19.5-4.9,31.6C224.1,214.2,224,214.4,223.6,214.5C223.7,214.5,223.6,214.5,223.6,214.5z"/>
	</g>
	<g>
		<path style="fill:#1365A8;" d="M235.3,201.6c0,0-35.5,9.6-38.2,10.5s-2.3,7.1-2.3,8.5s-7.9,41.7-7.9,41.7
			c-2.5,1.6-4.9,3.4-7.1,5.4c-3.1,2.9-1.9,6.7-1.9,7.7s0.2,1.3-0.8,2.3s-3.1-0.8-2.7,5.2s-1.7,20,3.6,20.7s8.1,0.2,15.9-2.5
			c4.6-1.5,8.5-4.8,10.9-9v22.7h96.4c0,0,9.8-28.6,10.4-47.4s3.1-46.5-0.4-51.7s-21.7-10.9-37.8-12.9S238.1,200.9,235.3,201.6z"/>
	</g>
	<g>
		<g>
			<g>
				<g>
					<defs>
						<path id="SVGID_1_" d="M235.3,201.6c0,0-35.5,9.6-38.2,10.5s-2.3,7.1-2.3,8.5s-7.9,41.7-7.9,41.7c-2.5,1.6-4.9,3.4-7.1,5.4
							c-3.1,2.9-1.9,6.7-1.9,7.7s0.2,1.3-0.8,2.3s-3.1-0.8-2.7,5.2s-1.7,20,3.6,20.7s8.1,0.2,15.9-2.5c4.6-1.5,8.5-4.8,10.9-9v22.7
							h96.4c0,0,9.8-28.6,10.4-47.4s3.1-46.5-0.4-51.7s-21.7-10.9-37.8-12.9S238.1,200.9,235.3,201.6z"/>
					</defs>
					<clipPath id="SVGID_2_">
						<use xlink:href="#SVGID_1_"  style="overflow:visible;"/>
					</clipPath>
					<g style="clip-path:url(#SVGID_2_);">
						<g style="opacity:0.24;enable-background:new    ;">
							<path d="M307.6,212.5c0.5,0.6,0.7,1.1,0.3,1.3c-1.3,0.6-7.5,2.6-8.3,5.3s-0.4-8-1.9-4.9s-3.4,15.4-11.3,40.2
								c-6.3,19.8-9.7,45.1-7.6,60.3h22.4c0,0,9.8-28.6,10.4-47.4s3.1-46.5-0.4-51.7C310.3,214.4,309,213.3,307.6,212.5z"/>
						</g>
						<g>
							<path style="fill:#1365A8;" d="M236.6,196.3c-1.3,0.9-2.4,2.2-3.1,3.6c-1.3,2.7-12.7,23.6-13.6,24.6s5.2,0.8,7.7-0.4
								s7.1-1.1,7.1-1.1l4.4,3.5l13.6,5.4c0,0,6.1-4.4,9.2-6.9s4.4-3.5,4.4-3.5c2.7,0.9,5.2,2.1,7.7,3.5c3.1,1.9,1.9,2.9,3.1,1.9
								s0.6-2.9-1-5.6s-6.3-17.5-12.3-23S243.7,190.9,236.6,196.3z"/>
							<path style="fill:#3B3E44;" d="M252.7,232.4c-0.1,0-0.1,0-0.2,0l-13.6-5.4c0,0-0.1,0-0.1-0.1l-4.3-3.4c-0.8,0-4.6,0-6.7,1.1
								c-2.2,1-7.6,1.5-8.4,0.5c-0.2-0.2-0.2-0.6,0.1-0.9c0.8-0.9,11.9-21.2,13.5-24.5c0.8-1.5,1.9-2.9,3.3-3.8
								c7.4-5.6,21.7-3.6,27.8,2c4.5,4.1,8.3,13.3,10.5,18.9c0.8,2,1.5,3.6,1.9,4.3c1.4,2.3,2.5,4.9,0.9,6.2c-0.4,0.4-0.7,0.6-1,0.5
								c-0.3,0-0.5-0.3-0.6-0.5c-0.2-0.3-0.7-1-2.1-1.9c-2.7-1.5-5-2.6-7.3-3.4c-0.5,0.4-1.8,1.4-4.2,3.3c-3.1,2.5-9.2,6.9-9.2,6.9
								C252.9,232.4,252.8,232.4,252.7,232.4z M239.4,226.1l13.3,5.3c1.1-0.8,6.2-4.5,9-6.7c3.1-2.5,4.4-3.5,4.4-3.5
								c0.1-0.1,0.3-0.1,0.5-0.1c2.5,0.8,5,2,7.8,3.5c1.5,0.9,2.1,1.7,2.4,2.1c0.1,0,0.1-0.1,0.2-0.1c0.8-0.7,0.5-2.2-1.1-5
								c-0.4-0.8-1.1-2.4-1.9-4.4c-2.2-5.4-6-14.5-10.3-18.5c-5.8-5.3-19.7-7.2-26.6-2l0,0c-1.2,0.8-2.3,2.1-2.9,3.4
								c-1,2-11.6,21.6-13.5,24.4c1.1,0.2,4.9,0,6.9-0.9c2.6-1.2,7.1-1.2,7.3-1.1c0.1,0,0.2,0,0.3,0.1L239.4,226.1z M236.6,196.3
								L236.6,196.3L236.6,196.3z"/>
						</g>
						<g>
							<polygon style="fill:#1365A8;" points="264.4,244.1 290.9,244.3 290.4,251.7 276.7,258.7 264.4,251.9 							"/>
							<path style="fill:#3B3E44;" d="M276.7,259.2c-0.1,0-0.2,0-0.2-0.1l-12.3-6.8c-0.2-0.1-0.3-0.3-0.3-0.4v-7.8
								c0-0.1,0.1-0.3,0.1-0.4c0.1-0.1,0.2-0.2,0.4-0.1l26.5,0.2c0.1,0,0.3,0.1,0.4,0.2c0.1,0.1,0.1,0.2,0.1,0.4l-0.5,7.4
								c0,0.2-0.1,0.3-0.3,0.4l-13.7,7C276.9,259.2,276.8,259.2,276.7,259.2z M264.9,251.6l11.8,6.5l13.2-6.8l0.4-6.6l-25.5-0.2v7.1
								H264.9z"/>
						</g>
						<g>
							<polygon style="fill:#1365A8;" points="204.9,241.8 231.4,241.9 230.8,249.4 217.2,256.3 204.9,249.6 							"/>
							<path style="fill:#3B3E44;" d="M217.2,256.8c-0.1,0-0.2,0-0.2-0.1l-12.3-6.7c-0.2-0.1-0.3-0.3-0.3-0.4v-7.8
								c0-0.1,0.1-0.3,0.1-0.4s0.3-0.2,0.4-0.1l26.5,0.1c0.1,0,0.3,0.1,0.4,0.2s0.1,0.2,0.1,0.4l-0.6,7.5c0,0.2-0.1,0.3-0.3,0.4
								l-13.6,6.9C217.4,256.8,217.3,256.8,217.2,256.8z M205.4,249.3l11.8,6.4l13.1-6.7l0.5-6.7l-25.5-0.1L205.4,249.3L205.4,249.3
								z"/>
						</g>
						<g style="opacity:0.24;enable-background:new    ;">
							<path d="M205.2,299.2c0,0-1.5-56.8-0.4-63.2s-6.8-25.6-6.4-15.4s3,25.5,3.2,29.3s-8.9,1.9-8.1,6.8c0.8,4.9,6,4.9,7.5,12.4
								s-11.3,7.1-11.3,11.3s4.5,9.8,0.8,13.2s-5.9-1.1-5.9-1.1c1.3,3.6,1.6,7.4,0.7,11.2c2.9-0.6,5.8-1.4,8.6-2.4
								c4.6-1.5,8.5-4.8,10.9-9v8.2L205.2,299.2z"/>
						</g>
					</g>
				</g>
			</g>
		</g>
	</g>
	<g>
		<path style="fill:#3B3E44;" d="M301.2,315.3h-96.4c-0.3,0-0.5-0.2-0.5-0.5v-21c-2.5,3.6-6.2,6.4-10.2,7.7
			c-8,2.8-10.9,3.2-16.1,2.5c-4.4-0.6-4.2-9-4-15.7c0.1-2.1,0.1-4,0-5.5c-0.3-4.5,0.8-5.1,2.1-5.3c0.3-0.1,0.6-0.1,0.7-0.3
			c0.7-0.7,0.7-0.9,0.7-1.5c0-0.1,0-0.3,0-0.4s0-0.4-0.1-0.6c-0.2-1.6-0.7-4.8,2.1-7.4c2.1-1.9,4.4-3.7,7-5.3
			c3.2-16.1,7.8-40.3,7.8-41.4v-0.5c0-2.3-0.2-7.5,2.6-8.5c2.7-0.9,36.8-10.1,38.2-10.5l0,0c2.8-0.7,22-0.8,38.3,1.2
			c15.4,1.9,34.4,7.5,38.2,13.1c2.8,4.1,1.9,21.4,1.1,38c-0.2,5-0.5,9.7-0.6,14c-0.6,18.7-10.3,47.3-10.4,47.5
			C301.6,315.2,301.4,315.3,301.2,315.3z M205.3,314.3h95.5c1.1-3.3,9.7-29.5,10.3-46.9c0.1-4.3,0.4-9,0.6-14
			c0.8-15.7,1.7-33.5-0.9-37.4c-3.2-4.8-20.3-10.6-37.4-12.7c-16.2-2-35.2-1.9-37.9-1.2c-0.6,0.2-35.5,9.6-38.2,10.5
			c-2.1,0.7-2,5.8-2,7.5c0,0.2,0,0.4,0,0.5c0,1.4-7.1,37.7-7.9,41.8c0,0.1-0.1,0.3-0.2,0.3c-2.6,1.7-4.9,3.5-7,5.3
			c-2.4,2.2-2,5.1-1.8,6.6c0,0.3,0.1,0.6,0.1,0.8c0,0.1,0,0.3,0,0.4c0,0.8,0,1.3-1,2.3c-0.4,0.4-0.8,0.5-1.2,0.5
			c-0.8,0.2-1.6,0.3-1.3,4.3c0.1,1.5,0,3.5,0,5.6c-0.2,6-0.4,14.2,3.2,14.7c5.1,0.7,7.8,0.3,15.7-2.5c4.4-1.4,8.3-4.6,10.6-8.8
			c0.1-0.2,0.3-0.3,0.6-0.2c0.2,0.1,0.4,0.3,0.4,0.5v22.1L205.3,314.3L205.3,314.3z M186.9,262.3L186.9,262.3L186.9,262.3z"/>
	</g>
	<g>
		<path style="fill:#3B3E44;" d="M204.9,292.9c-0.3,0-0.5-0.2-0.5-0.5c0-0.2-1.7-21-6.2-26.2c-0.2-0.2-0.2-0.5,0.1-0.7
			c0.2-0.2,0.5-0.2,0.7,0.1c2.7,3.2,4.5,11.7,5.4,18.2v-24.6c0-0.3,0.2-0.5,0.5-0.5s0.5,0.2,0.5,0.5v33.2
			C205.4,292.7,205.2,292.9,204.9,292.9L204.9,292.9z"/>
	</g>
	<g>
		<path style="fill:#3B3E44;" d="M190.9,301c-0.1,0-0.2,0-0.2-0.1c-0.2-0.1-0.3-0.4-0.2-0.7c0,0,2.4-4.7,0.4-11.9
			c-2-7.2-11.9-10.7-12-10.8c-0.3-0.1-0.4-0.4-0.3-0.6c0.1-0.3,0.4-0.4,0.6-0.3c0.4,0.2,10.5,3.8,12.6,11.4s-0.3,12.5-0.4,12.7
			C191.3,300.9,191.1,301,190.9,301z"/>
	</g>
	<g>
		<path style="fill:#1365A8;" d="M166.8,289.7c0,0,7.4-3.4,8-4s7.1-0.3,9.8,6.6s0.8,10.3-0.6,11s-8.5,2.8-10.5,2.8
			S163.3,292.3,166.8,289.7z"/>
		<path style="fill:#3B3E44;" d="M173.5,306.6c-1.8,0-5.8-6.5-7.4-11.1c-1-3.2-0.9-5.2,0.4-6.2c0,0,0.1,0,0.1-0.1
			c3.6-1.6,7.5-3.5,7.9-3.9c0.5-0.5,1.8-0.4,2.9-0.2c1.6,0.3,5.7,1.7,7.8,7c2.7,6.9,1,10.7-0.8,11.6
			C182.8,304.5,175.6,306.6,173.5,306.6z M167.1,290.1c-0.7,0.6-0.8,2.1-0.2,4.3c1.4,4.9,5.6,11.1,6.6,11.1c1.9,0,9-2.1,10.3-2.7
			c1-0.5,3.1-3.4,0.4-10.4c-1.5-3.8-4-5.3-5.9-6c-1.6-0.6-2.9-0.5-3.1-0.4C174.5,286.7,168.9,289.3,167.1,290.1z"/>
	</g>
	<g>
		<path style="fill:#FFFFFF;" d="M237.7,199.7c0,0-3.3,114.7-1.9,114.7h23.4c0,0,0.2-83.6,1.7-91.5s5.2-21.9,4.6-25.7
			s-26.7-1.7-26.7-1.7C238.3,196.8,237.9,198.3,237.7,199.7z"/>
	</g>
	<g>
		<g>
			<g>
				<g>
					<defs>
						<path id="SVGID_3_" d="M237.7,199.7c0,0-3.3,114.7-1.9,114.7h23.4c0,0,0.2-83.6,1.7-91.5s5.2-21.9,4.6-25.7
							s-26.7-1.7-26.7-1.7C238.3,196.8,237.9,198.3,237.7,199.7z"/>
					</defs>
					<clipPath id="SVGID_4_">
						<use xlink:href="#SVGID_3_"  style="overflow:visible;"/>
					</clipPath>
					<g style="clip-path:url(#SVGID_4_);">
						<g>
							<path style="fill:#D3D3D3;" d="M237.7,199.7c0,0-3.3,114.7-1.9,114.7h23.4c0,0,0.2-83.6,1.7-91.5s5.2-21.9,4.6-25.7
								s-26.7-1.7-26.7-1.7C238.3,196.8,237.9,198.3,237.7,199.7z"/>
						</g>
						<g style="opacity:0.7;enable-background:new    ;">
							<path style="fill:#FFFFFF;" d="M237.7,199.7c0,0-3.3,114.7-1.9,114.7h23.4c0,0,0.2-83.6,1.7-91.5s5.2-21.9,4.6-25.7
								s-26.7-1.7-26.7-1.7C238.3,196.8,237.9,198.3,237.7,199.7z"/>
						</g>
					</g>
				</g>
			</g>
		</g>
	</g>
	<g>
		<path style="fill:#3B3E44;" d="M259.2,314.9h-23.4c-0.1,0-0.3-0.1-0.4-0.2c-1.3-1.4,0.8-80.9,1.8-115.1c0,0,0,0,0-0.1
			c0.2-1.4,0.6-2.9,1.1-4.3c0.1-0.2,0.2-0.3,0.4-0.3c6.2-0.5,26.6-1.8,27.2,2.1c0.4,2.8-1.2,10.4-2.9,17.8c-0.7,3-1.3,5.8-1.7,8.1
			c-1.5,7.8-1.7,90.6-1.7,91.4C259.7,314.7,259.5,314.9,259.2,314.9z M236.2,314.1L236.2,314.1L236.2,314.1z M236.2,313.9h22.5
			c0-7.6,0.3-83.5,1.7-91.1c0.4-2.3,1.1-5.2,1.7-8.1c1.5-6.9,3.3-14.8,2.9-17.4c-0.3-2.1-13.3-2.3-25.8-1.3c-0.4,1.2-0.8,2.5-1,3.8
			C237.3,230.1,235.3,308.3,236.2,313.9z"/>
	</g>
	<g>
		<path style="fill:#FFB30D;" d="M260.8,223.9c-7.7,2.5-15.9,2.8-23.8,0.9c-0.9,34.3-2.2,89.7-1.3,89.7h23.4
			C259.3,314.4,259.4,236.1,260.8,223.9z"/>
	</g>
	<g>
		<path style="fill:#3B3E44;" d="M259.1,315h-23.4c-0.1,0-0.3-0.1-0.4-0.2c-0.3-0.3-1.2-1.2,1.2-90.1c0-0.2,0.1-0.3,0.2-0.4
			c0.1-0.1,0.3-0.1,0.4-0.1c7.8,1.9,15.9,1.6,23.5-0.9c0.2-0.1,0.3,0,0.5,0.1c0.1,0.1,0.2,0.3,0.2,0.4c-1,8.7-1.3,51.9-1.5,75.1
			c-0.1,15.7-0.1,15.7-0.5,15.9C259.3,315,259.2,315,259.1,315z M236.1,314h22.6c0-1.6,0.1-7.6,0.1-14.9c0.2-22.6,0.5-64.2,1.4-74.5
			c-7.4,2.2-15.2,2.5-22.7,0.8C236.1,277.7,235.6,310.4,236.1,314z"/>
	</g>
	<g>
		<path style="fill:#FFFFFF;" d="M248.9,150.1c0,0-3.5,10.9-18.4,20.7c0,0-1,13.6,3.1,23.8s14.8,18.2,19.4,17.3
			c4.6-0.9,13.6-11.3,16.7-18.6s3.1-20.4,3.1-20.4S257.1,162.8,248.9,150.1z"/>
		<path style="fill:#3B3E44;" d="M252.2,212.5c-5.4,0-15.3-8.1-19.1-17.7c-4.1-10.2-3.1-23.9-3.1-24c0-0.2,0.1-0.3,0.2-0.4
			c14.6-9.6,18.2-20.3,18.2-20.4c0.1-0.2,0.2-0.3,0.4-0.3s0.4,0.1,0.5,0.2c8,12.5,23.6,22.5,23.8,22.7c0.1,0.1,0.2,0.3,0.2,0.4
			c0,0.5,0,13.3-3.1,20.6s-12.1,17.9-17.1,18.9C252.8,212.4,252.5,212.5,252.2,212.5z M231,171.1c-0.1,1.9-0.6,14.1,3.1,23.3
			c4.1,10.2,14.6,17.8,18.8,17s13.2-10.9,16.3-18.3c2.8-6.6,3-18,3.1-19.9c-1.9-1.3-15.5-10.6-23.3-22
			C247.8,154,243.4,162.9,231,171.1z"/>
	</g>
	<g>
		<path style="fill:#3B3E44;" d="M249.4,194.9c-0.5,0-0.9-0.1-1.3-0.4c-1.1-0.7-1-4.9-0.8-7.4c0-0.3,0.3-0.5,0.5-0.5
			c0.3,0,0.5,0.3,0.5,0.5c-0.2,3.1,0,6.1,0.4,6.4c0.4,0.2,1,0.3,1.4,0.1s0.7-0.7,0.8-1.4c0-0.3,0.3-0.5,0.5-0.5
			c0.3,0,0.5,0.3,0.5,0.5c-0.1,1-0.6,1.8-1.3,2.2C250.1,194.8,249.7,194.9,249.4,194.9z"/>
	</g>
	<g>
		<path style="fill:#3B3E44;" d="M249.6,198.9c-2.1,0-3.7-0.3-3.9-0.3c-0.3-0.1-0.5-0.3-0.4-0.6s0.3-0.4,0.6-0.4
			c0.1,0,5.8,1,8.9-0.7c0.2-0.1,0.5-0.1,0.7,0.2c0.1,0.2,0.1,0.5-0.2,0.7C253.6,198.7,251.4,198.9,249.6,198.9z"/>
	</g>
	<g>
		<path style="fill:#3B3E44;" d="M234,173.2c-0.1,0-0.2,0-0.3-0.1c-0.2-0.2-0.3-0.5-0.1-0.7c4.4-5.6,12.4-2.4,12.5-2.4
			c0.3,0.1,0.4,0.4,0.3,0.7c-0.1,0.3-0.4,0.4-0.7,0.3c-0.1,0-7.4-3-11.3,2C234.3,173.1,234.1,173.2,234,173.2z"/>
	</g>
	<g>
		<path style="fill:#3B3E44;" d="M253.4,173.4c-0.1,0-0.3,0-0.4-0.1c-0.2-0.2-0.2-0.5,0-0.7c0.1-0.1,6-5.8,14.1-0.7
			c0.2,0.1,0.3,0.5,0.2,0.7c-0.1,0.2-0.5,0.3-0.7,0.2c-7.5-4.7-12.7,0.3-12.9,0.5C253.7,173.4,253.5,173.4,253.4,173.4z"/>
	</g>
	<g>
		<path style="fill:#3B3E44;" d="M241.8,182.7c-3.5,0-5.6-1.9-5.7-2.1c-0.2-0.2-0.2-0.5,0-0.7s0.5-0.2,0.7,0
			c0.1,0.1,3.5,3.2,9.1,0.9c0.3-0.1,0.5,0,0.7,0.3s0,0.5-0.3,0.7C244.5,182.5,243,182.7,241.8,182.7z"/>
	</g>
	<g>
		<path style="fill:#3B3E44;" d="M259.1,182.5c-2.6,0-4.6-0.9-4.7-1c-0.3-0.1-0.4-0.4-0.2-0.7c0.1-0.2,0.4-0.4,0.7-0.2
			c0,0,4.8,2.1,8.7-0.4c0.2-0.2,0.5-0.1,0.7,0.1c0.1,0.2,0.1,0.5-0.2,0.7C262.4,182.2,260.7,182.5,259.1,182.5z"/>
	</g>
	<g>
		<path style="fill:#3B3E44;" d="M243.2,182.4c0,0,2.1,0.1,0.1,0.8s-3.9,0.4-5.9-1.3C237.5,181.8,241.3,182.3,243.2,182.4z"/>
		<path style="fill:#3B3E44;" d="M241.4,184c-1.5,0-2.9-0.6-4.3-1.8c-0.1-0.1-0.2-0.2-0.2-0.4c0-0.1,0-0.3,0.1-0.4
			c0.2-0.2,0.2-0.2,2.7,0c1.2,0.1,2.5,0.3,3.4,0.3c1.2,0.1,1.4,0.4,1.4,0.7c0.1,0.6-0.7,0.9-1.2,1.1C242.7,183.9,242,184,241.4,184z
			 M239.2,182.5c1.1,0.5,2.2,0.7,3.4,0.3c-0.9-0.1-2-0.2-3-0.3C239.5,182.6,239.4,182.6,239.2,182.5z M243.8,183L243.8,183
			L243.8,183z"/>
	</g>
	<g>
		<path style="fill:#3B3E44;" d="M257.1,181.9c0,0-2-0.2-0.2,0.8s3.8,0.9,6-0.6C262.8,182.1,259,182.1,257.1,181.9z"/>
		<path style="fill:#3B3E44;" d="M259.3,183.9c-0.9,0-1.8-0.2-2.7-0.7c-0.4-0.2-1.2-0.6-1-1.2c0-0.2,0.2-0.6,1.5-0.5l0,0
			c1.9,0.2,5.6,0.2,5.7,0.2c0.2,0,0.4,0.1,0.5,0.4c0.1,0.2,0,0.4-0.2,0.6C261.9,183.4,260.6,183.9,259.3,183.9z M257.5,182.4
			c1.1,0.5,2.2,0.6,3.4,0.1C259.8,182.6,258.5,182.5,257.5,182.4z"/>
	</g>
	<g>
		<path style="fill:#FFFFFF;" d="M287.5,248.7l-3.1-31.7c0,0-6.5-1.3-8.8-2.9s-5-3.5-5-3.5s-1.5,1.3-2.7,0s-4.8-4-5.4-6.1
			s3.5-5,6-8.4s5.2-6.7,7.1-6.5s10.2,8.6,14.4,15.2s6,8.3,6.1,10.6s4,14,4,14l1,19.8L287.5,248.7z"/>
		<path style="fill:#3B3E44;" d="M301.1,249.7L301.1,249.7l-13.6-0.5c-0.3,0-0.5-0.2-0.5-0.5l-3.1-31.3c-1.4-0.3-6.6-1.5-8.6-2.9
			c-1.8-1.3-3.9-2.8-4.7-3.3c-0.8,0.5-2,0.9-3.1-0.3c-0.3-0.3-0.8-0.8-1.4-1.3c-1.6-1.5-3.7-3.3-4.2-5s1.2-3.5,3.2-5.6
			c1-1,2-2.1,2.9-3.3c3.1-4.2,5.5-6.9,7.6-6.7c2.3,0.2,10.7,9,14.8,15.4c1.3,2,2.3,3.6,3.2,4.8c2,2.9,2.9,4.3,3,6
			c0.1,1.8,2.6,9.8,4,13.9v0.1l1,19.8c0,0.1,0,0.3-0.1,0.4C301.4,249.6,301.2,249.7,301.1,249.7z M288,248.2l12.6,0.5l-1-19.2
			c-0.3-1-3.9-11.8-4-14.1c-0.1-1.5-0.9-2.7-2.8-5.5c-0.9-1.3-1.9-2.8-3.2-4.9c-4.2-6.7-12.4-14.8-14-15c-1.9-0.2-5.2,4.4-6.6,6.3
			c-0.9,1.2-1.9,2.3-2.9,3.4c-1.7,1.8-3.3,3.5-3,4.6c0.4,1.4,2.4,3.2,3.9,4.6c0.6,0.5,1.1,1,1.4,1.3c0.8,0.9,1.9,0.1,2,0
			c0.2-0.1,0.4-0.2,0.6,0c0,0,2.7,1.9,5,3.5c2.2,1.5,8.5,2.8,8.6,2.8c0.2,0,0.4,0.2,0.4,0.4L288,248.2z"/>
	</g>
	<g>
		<path style="fill:#3B3E44;" d="M270.6,211.2c-0.1,0-0.3,0-0.3-0.1c-0.9-0.9-4-3.9-4-5.3c0-0.3,0.2-0.5,0.5-0.5s0.5,0.2,0.5,0.5
			c0,0.6,1.9,2.8,3.6,4.5c0.2,0.2,0.2,0.5,0,0.7C270.9,211.1,270.7,211.2,270.6,211.2z"/>
	</g>
	<g>
		<path style="fill:#1365A8;" d="M280.9,230.3l3.6,20.4l4-22.7l15.5-1.7c0,0-0.1,24.2-0.1,30.3s2.7,34.2,3.5,44s-4.4,13-11.5,13.2
			s-12.9-6.3-15.2-19.6s0.4-37.4-0.8-41.5c-1.1-4-6-20.5-6-20.5L280.9,230.3z"/>
	</g>
	<g>
		<g>
			<g>
				<g>
					<defs>
						<path id="SVGID_5_" d="M280.9,230.3l3.6,20.4l4-22.7l15.5-1.7c0,0-0.1,24.2-0.1,30.3s2.7,34.2,3.5,44s-4.4,13-11.5,13.2
							s-12.9-6.3-15.2-19.6s0.4-37.4-0.8-41.5c-1.1-4-6-20.5-6-20.5L280.9,230.3z"/>
					</defs>
					<clipPath id="SVGID_6_">
						<use xlink:href="#SVGID_5_"  style="overflow:visible;"/>
					</clipPath>
					<g style="clip-path:url(#SVGID_6_);">
						<g style="opacity:0.24;enable-background:new    ;">
							<path d="M298.4,313.6c5.8-0.9,9.7-4.4,9.1-13c-0.8-9.8-3.5-37.8-3.5-44c0-6.2,0.2-30.3,0.2-30.3l-2.5,0.3
								c-1.5,4.8-9.5,33.2-5.4,53.4c4.5,22.2,8.3,24.4,2.3,33.5L298.4,313.6z"/>
						</g>
					</g>
				</g>
			</g>
		</g>
	</g>
	<g>
		<path style="fill:#3B3E44;" d="M295.6,314.3c-7.6,0-13.2-7.3-15.4-20c-1.4-7.9-1-19.3-0.7-28.5c0.2-6.1,0.4-11.3-0.1-12.9
			c-1.1-4-6-20.3-6-20.5c0-0.1,0-0.3,0-0.4c0.1-0.1,0.2-0.2,0.3-0.2l7-1.9c0.1,0,0.3,0,0.4,0.1s0.2,0.2,0.2,0.3l3.1,17.6l3.5-19.9
			c0-0.2,0.2-0.4,0.4-0.4l15.5-1.7c0.1,0,0.3,0,0.4,0.1s0.2,0.2,0.2,0.4c0,0-0.1,24.2-0.1,30.3c0,4.5,1.5,20.9,2.5,33
			c0.4,4.5,0.7,8.4,1,11c0.4,4.5-0.5,7.9-2.5,10.2c-2,2.2-5.2,3.4-9.4,3.5C295.8,314.3,295.7,314.3,295.6,314.3z M274.5,232.5
			c0.8,2.8,4.9,16.4,5.9,20c0.5,1.8,0.3,6.8,0.1,13.2c-0.3,9.2-0.7,20.6,0.7,28.3c2.1,12.2,7.3,19.2,14.4,19.2c0.1,0,0.2,0,0.3,0
			c4-0.1,6.9-1.2,8.7-3.2c1.9-2.1,2.6-5.3,2.3-9.4c-0.2-2.6-0.6-6.5-1-11c-1.1-12.1-2.5-28.6-2.5-33.1c0-5.5,0.1-26.1,0.1-29.7
			l-14.6,1.6l-3.9,22.3c0,0.2-0.2,0.4-0.5,0.4c-0.2,0-0.5-0.2-0.5-0.4l-3.5-19.9L274.5,232.5z"/>
	</g>
	<g>
		<path style="fill:#FFFFFF;" d="M158.9,309.6c0,0-0.5,3.1,2.3,3.8s9.5-1,10.1-2.5c0.3-0.8,0.2-1.7-0.4-2.4h-6.1
			C164.7,308.6,160.1,307.1,158.9,309.6z"/>
		<path style="fill:#3B3E44;" d="M162.8,314.1c-0.7,0-1.2-0.1-1.7-0.2c-2.6-0.6-2.9-3.1-2.7-4.4v-0.1c1.2-2.4,4.8-1.7,6-1.4
			c0.1,0,0.2,0,0.3,0.1l0,0h6.1c0.1,0,0.3,0.1,0.4,0.2c0.7,0.8,0.9,1.9,0.5,2.9C171.1,312.7,166.1,314.1,162.8,314.1z M159.4,309.7
			c0,0.4-0.2,2.6,1.9,3.2c2.8,0.7,9.1-1.1,9.5-2.2c0.2-0.6,0.2-1.2-0.2-1.7h-5.8c-0.1,0-0.3,0-0.6-0.1
			C163.3,308.7,160.3,308.1,159.4,309.7z"/>
	</g>
	<g>
		<polygon style="fill:#3B3E44;" points="131.4,276.3 156.8,294 158.7,291.5 133.2,273.6 		"/>
		<path style="fill:#3B3E44;" d="M156.8,294.5c-0.1,0-0.2,0-0.3-0.1l-25.4-17.7c-0.2-0.2-0.3-0.5-0.1-0.7l1.8-2.7
			c0.1-0.1,0.2-0.2,0.3-0.2s0.3,0,0.4,0.1l25.5,17.9c0.1,0.1,0.2,0.2,0.2,0.3c0,0.1,0,0.3-0.1,0.4l-1.9,2.5
			C157.1,294.4,157,294.5,156.8,294.5z M132.1,276.2l24.6,17.1l1.3-1.7l-24.7-17.3L132.1,276.2z"/>
	</g>
	<g>
		<polygon style="fill:#FFFFFF;" points="137.3,280.4 139.3,277.9 133.2,273.6 131.4,276.3 		"/>
		<path style="fill:#3B3E44;" d="M137.3,280.9c-0.1,0-0.2,0-0.3-0.1l-5.9-4.1c-0.2-0.2-0.3-0.5-0.1-0.7l1.8-2.7
			c0.1-0.1,0.2-0.2,0.3-0.2s0.3,0,0.4,0.1l6.1,4.3c0.1,0.1,0.2,0.2,0.2,0.3s0,0.3-0.1,0.4l-2,2.5
			C137.6,280.8,137.4,280.9,137.3,280.9z M132.1,276.2l5.1,3.6l1.4-1.7l-5.2-3.7L132.1,276.2z"/>
	</g>
	<g>
		<path style="fill:#FFFFFF;" d="M162.9,309.4c4-0.2,7.8-1.8,10.7-4.5c4.6-4.4,4.9-7.4-1.3-13.8s-19.6,1.1-20.1,3.9
			S162.9,309.4,162.9,309.4z"/>
		<path style="fill:#3B3E44;" d="M162.9,309.9c-0.1,0-0.3-0.1-0.4-0.2c-1.9-2-11.4-11.9-10.8-14.8c0.3-1.8,4.6-4.7,8.9-6
			c3-0.9,8.4-1.9,12,1.8c3.4,3.6,4.9,6.1,4.8,8.4c0,1.9-1.1,3.8-3.6,6.1C171,308,167,309.7,162.9,309.9L162.9,309.9z M165.7,289.1
			c-1.8,0-3.6,0.4-4.8,0.8c-4.5,1.4-8,4.1-8.2,5.2c-0.3,1.8,6.1,9.4,10.4,13.8c3.8-0.2,7.4-1.8,10.2-4.4c2.2-2.1,3.2-3.8,3.2-5.4
			c0-2-1.4-4.4-4.6-7.7C170.2,289.6,167.9,289.1,165.7,289.1z"/>
	</g>
	<g>
		<path style="fill:#FFFFFF;" d="M176.5,297.8c0,0-1.7,3.6-3.4,5s-4.3,1.7-5.8-0.5s-3.1-9.1-4.5-9.2s-8.1-2.4-10-5s-1.8-4.7,2.4-3.4
			s15.6,2.7,15.6,2.7s2.7,1.6,4.5,7.3"/>
		<path style="fill:#3B3E44;" d="M170.2,304.4c-0.2,0-0.4,0-0.6,0c-1.1-0.2-2.1-0.8-2.7-1.8c-0.7-1-1.3-2.7-2-4.4
			c-0.6-1.6-1.6-4.4-2.2-4.5c-1.3-0.1-8.3-2.4-10.4-5.2c-1.2-1.7-1.6-3.1-1-3.9s1.9-0.9,4-0.3c4.1,1.3,15.4,2.7,15.5,2.7
			s0.1,0,0.2,0.1c0.1,0.1,2.9,1.8,4.7,7.6c0.1,0.3-0.1,0.5-0.3,0.6c-0.3,0.1-0.5-0.1-0.6-0.3c-1.6-4.9-3.8-6.7-4.2-7
			c-1.3-0.2-11.6-1.5-15.6-2.7c-1.8-0.5-2.6-0.4-2.8-0.1s0,1.3,1,2.7c1.8,2.4,8.3,4.7,9.6,4.8c1.1,0.1,1.8,1.9,3,5.2
			c0.6,1.7,1.3,3.4,1.8,4.2c0.5,0.8,1.2,1.2,2.1,1.4c1,0.1,2.1-0.2,3-1c1.6-1.3,3.2-4.8,3.3-4.8c0.1-0.2,0.4-0.4,0.7-0.2
			c0.3,0.1,0.4,0.4,0.2,0.7c-0.1,0.2-1.8,3.7-3.5,5.2C172.5,304,171.3,304.4,170.2,304.4z"/>
	</g>
	<g>
		<path style="fill:#FFFFFF;" d="M154.7,306.3c0.6,0.7,2.6,4.1,3.5,4.3s6.6-3.4,8.8-6.2s-1.9-6.6-3.1-7.1S154.7,306.3,154.7,306.3z"
			/>
		<path style="fill:#3B3E44;" d="M158.2,311.1c-0.1,0-0.1,0-0.2,0c-0.8-0.2-1.7-1.5-3-3.4c-0.3-0.5-0.6-0.9-0.8-1.1s-0.2-0.5,0-0.6
			c5.5-6.5,8.8-9.6,9.8-9.1c0.9,0.4,3.3,2.4,3.9,4.7c0.3,1.2,0.1,2.3-0.6,3.2C165.4,307.2,159.8,311.1,158.2,311.1z M155.3,306.3
			c0.2,0.2,0.4,0.5,0.6,0.8c0.6,0.8,1.9,2.8,2.4,3l0,0c0.8,0,6.2-3.3,8.3-6c0.5-0.7,0.7-1.4,0.4-2.3c-0.5-2-2.7-3.8-3.3-4
			C162.9,297.9,158.8,302.2,155.3,306.3z"/>
	</g>
	<g>
		<path style="fill:#FFFFFF;" d="M151.8,296.3c0,0-5,3-3.8,5.1s5.2,5.2,6.5,4.6s9.9-4.6,9.9-6.8s-0.2-4.8-4.6-4.4
			C157.1,295.1,154.4,295.6,151.8,296.3z"/>
		<path style="fill:#3B3E44;" d="M154.1,306.6c-2,0-5.5-3.1-6.6-4.9c-1.4-2.5,3.4-5.4,4-5.8c0,0,0.1,0,0.1-0.1
			c2.6-0.7,5.3-1.2,8.1-1.5c1.8-0.2,3.1,0.1,4,0.9c1.1,1,1.2,2.6,1.2,4c0,2.1-5.5,5.1-10.2,7.3C154.5,306.5,154.3,306.6,154.1,306.6
			z M152,296.8c-1.2,0.8-4.3,3-3.6,4.4c1.2,2.1,5,4.8,5.9,4.4c5.7-2.6,9.6-5.2,9.6-6.3c0-1.2-0.1-2.5-0.9-3.2
			c-0.6-0.6-1.7-0.8-3.2-0.7C157.2,295.6,154.5,296.1,152,296.8z"/>
	</g>
	<g>
		<path style="fill:#FFFFFF;" d="M146.8,288c0,0-2.4,4.9-0.2,7.1s16,2.1,16.7-0.4s-4.5-3.1-8.3-4.7S147.3,286.9,146.8,288z"/>
		<path style="fill:#3B3E44;" d="M154.9,297.2c-3.7,0-7.4-0.5-8.6-1.7c-2.4-2.4,0-7.4,0.1-7.7c0.6-1.4,3.5-0.5,8.8,1.8
			c1,0.4,2.2,0.8,3.3,1.1c3.1,1,5.9,1.9,5.3,4.2c-0.2,0.7-1,1.3-2.6,1.7C159.6,296.9,157.3,297.2,154.9,297.2z M147.6,288.1
			c-0.3,0-0.4,0.1-0.4,0.1l0,0c0,0-2.2,4.6-0.3,6.5c1.5,1.5,9.7,1.9,14,0.8c1.3-0.3,1.8-0.7,1.9-1c0.4-1.3-1.5-1.9-4.6-2.9
			c-1.1-0.4-2.3-0.7-3.4-1.2C150.1,288.5,148.3,288.1,147.6,288.1z M146.8,288L146.8,288L146.8,288z"/>
	</g>
	<g>
		<path style="fill:#FFFFFF;" d="M200.2,313.8c0,0-0.4-6.5-6.1-8.8s-8.8-1.4-21.7,2.1c-8.1,2.1-16.4,3.4-24.8,3.8v2.9H200.2z"/>
		<path style="fill:#3B3E44;" d="M200.2,314.3h-52.6c-0.3,0-0.5-0.2-0.5-0.5v-2.9c0-0.3,0.2-0.5,0.5-0.5c8.2-0.4,16.5-1.7,24.7-3.8
			l0.6-0.2c12.4-3.4,15.7-4.3,21.4-1.9c5.9,2.4,6.4,9,6.4,9.2c0,0.1,0,0.3-0.1,0.4S200.3,314.3,200.2,314.3z M148.1,313.3h51.5
			c-0.2-1.5-1.3-6.1-5.7-7.8c-5.5-2.2-8.4-1.4-20.8,2l-0.6,0.2c-8.1,2.1-16.3,3.4-24.4,3.8V313.3z"/>
	</g>
	<g>
		<path style="fill:#FFFFFF;" d="M200,313.8c0,0,0.4-6.5,6.1-8.8s8.8-1.4,21.7,2.1c8.1,2.1,16.4,3.4,24.8,3.8v2.9H200z"/>
		<path style="fill:#3B3E44;" d="M252.6,314.3H200c-0.1,0-0.3-0.1-0.4-0.2s-0.1-0.2-0.1-0.4c0-0.3,0.5-6.8,6.4-9.2
			c5.8-2.3,9.1-1.4,21.4,1.9l0.6,0.2c8.2,2.1,16.5,3.4,24.7,3.8c0.3,0,0.5,0.2,0.5,0.5v2.9C253.1,314.1,252.9,314.3,252.6,314.3z
			 M200.6,313.3h51.5v-1.9c-8.1-0.4-16.3-1.7-24.4-3.8l-0.6-0.2c-12.4-3.4-15.4-4.2-20.8-2C201.9,307.2,200.8,311.8,200.6,313.3z"/>
	</g>
	<g>
		<rect x="146.3" y="312.6" style="fill:#3B3E44;" width="108.5" height="2.1"/>
		<path style="fill:#3B3E44;" d="M254.8,315.2H146.3c-0.3,0-0.5-0.2-0.5-0.5v-2.1c0-0.3,0.2-0.5,0.5-0.5h108.5
			c0.3,0,0.5,0.2,0.5,0.5v2.1C255.3,315,255.1,315.2,254.8,315.2z M146.8,314.2h107.5v-1.1H146.8V314.2z"/>
	</g>
</g>
<g id="freepik--Device--inject-4">
	<g>
		<path style="fill:#3B3E44;" d="M431.7,315.2H83c-0.3,0-0.5-0.2-0.5-0.5s0.2-0.5,0.5-0.5h348.7c0.3,0,0.5,0.2,0.5,0.5
			S432,315.2,431.7,315.2z"/>
	</g>
	<g>
		<polygon style="fill:#FFFFFF;" points="427.7,256.7 353.7,256.7 328.6,314.9 402.5,314.9 		"/>
		<path style="fill:#3B3E44;" d="M402.5,315.4h-73.9c-0.2,0-0.3-0.1-0.4-0.2s-0.1-0.3,0-0.5l25.1-58.2c0.1-0.2,0.3-0.3,0.5-0.3h74
			c0.2,0,0.3,0.1,0.4,0.2s0.1,0.3,0,0.5L403,315.1C402.9,315.3,402.7,315.4,402.5,315.4z M329.4,314.4h72.8l24.8-57.2h-73
			L329.4,314.4z"/>
	</g>
	<g>
		<polygon style="fill:#3B3E44;" points="430.5,256.7 356.6,256.7 331.5,314.9 405.4,314.9 		"/>
		<path style="fill:#3B3E44;" d="M405.4,315.4h-73.9c-0.2,0-0.3-0.1-0.4-0.2s-0.1-0.3,0-0.5l25.1-58.2c0.1-0.2,0.3-0.3,0.5-0.3h73.9
			c0.2,0,0.3,0.1,0.4,0.2s0.1,0.3,0,0.5l-25.1,58.2C405.8,315.3,405.6,315.4,405.4,315.4z M332.3,314.4h72.8l24.7-57.2H357
			L332.3,314.4z"/>
	</g>
	<g>
		<path style="fill:#FFB30D;" d="M386.9,292.1c-1.9,3-5.5,4.2-8,2.6s-3-5.3-1.1-8.3s5.5-4.2,8-2.6S388.8,289.1,386.9,292.1z"/>
		<path style="fill:#FFFFFF;" d="M381.4,295.9c-1,0-2-0.3-2.8-0.8c-2.7-1.7-3.3-5.8-1.3-9c1.1-1.8,2.8-3,4.7-3.4
			c1.4-0.3,2.9-0.1,4,0.6c2.7,1.7,3.3,5.8,1.3,9l0,0c-1.1,1.8-2.8,3-4.7,3.4C382.2,295.9,381.8,295.9,381.4,295.9z M383.3,283.6
			c-0.3,0-0.7,0-1.1,0.1c-1.6,0.4-3.1,1.4-4,3c-1.7,2.7-1.3,6.2,0.9,7.6c0.9,0.6,2.1,0.8,3.3,0.5c1.6-0.4,3.1-1.4,4-3l0,0
			c1.7-2.7,1.3-6.2-0.9-7.6C384.9,283.8,384.1,283.6,383.3,283.6z M386.9,292.1L386.9,292.1L386.9,292.1z"/>
	</g>
	<g>
		<rect x="275.6" y="312.6" style="fill:#FFFFFF;" width="54" height="2.1"/>
		<path style="fill:#3B3E44;" d="M329.6,315.2h-54c-0.3,0-0.5-0.2-0.5-0.5v-2.1c0-0.3,0.2-0.5,0.5-0.5h54c0.3,0,0.5,0.2,0.5,0.5v2.1
			C330.1,315,329.9,315.2,329.6,315.2z M276.1,314.2h53v-1.1h-53V314.2z"/>
	</g>
</g>
</svg>
