<?xml version="1.0" encoding="utf-8"?>
<!-- Generator: Adobe Illustrator 24.1.1, SVG Export Plug-In . SVG Version: 6.00 Build 0)  -->
<svg version="1.1" id="Camada_1" xmlns="http://www.w3.org/2000/svg" xmlns:xlink="http://www.w3.org/1999/xlink" x="0px" y="0px"
	 viewBox="0 0 348.5 244.1" style="enable-background:new 0 0 348.5 244.1;" xml:space="preserve">
<g id="freepik--Character--inject-4">
	<g>
		<path style="fill:#3B3E44;" d="M118.9,142.6c-4.8-5.3-6.7-11.2-5.3-19.3c2.5-14,17.9-29.6,17.9-39.4s6.9-32.6,27.8-33.9
			c20.9-1.4,31.5,9.2,36,32.2s4.2,27.1,9.4,37.8c2.1,4.4,4.5,8.9,5.4,13.8c1.8,9.7-8.8,14.4-16.2,17.1c-20.9,7.5-47.1,12.4-66.8-1.1
			C124.1,147.7,121.4,145.3,118.9,142.6z"/>
		<path style="fill:#3B3E44;" d="M157,158.8c-11.8,0-21.8-2.9-30.2-8.6c-3-2.1-5.7-4.5-8.3-7.3l0,0c-5.1-5.7-6.8-11.7-5.4-19.7
			c1.3-7.1,5.7-14.4,10-21.5c4.1-6.7,7.9-13.1,7.9-17.8c0-10.2,7.1-33.1,28.3-34.4c20.6-1.4,31.8,8.7,36.5,32.6
			c1.1,5.6,1.9,10.1,2.6,13.8c2.1,11.6,2.9,15.9,6.8,23.9c0.3,0.6,0.6,1.1,0.8,1.7c1.9,3.9,3.8,7.9,4.6,12.2
			c1.8,9.7-7.9,14.5-16.5,17.7C180.3,156.3,167.9,158.8,157,158.8z M119.3,142.3c2.6,2.8,5.2,5.1,8.1,7.1
			c15.8,10.8,38.1,11.2,66.3,1c8.3-3,17.5-7.6,15.9-16.5c-0.8-4.2-2.7-8.1-4.5-12c-0.3-0.6-0.6-1.1-0.8-1.7
			c-4-8.2-4.8-12.5-6.9-24.2c-0.7-3.6-1.5-8.2-2.6-13.7c-4.6-23.3-15.5-33.1-35.5-31.8C138.8,51.8,132,74,132,83.9
			c0,5-3.9,11.5-8.1,18.3c-4.2,7-8.6,14.2-9.8,21.1C112.8,131,114.4,136.9,119.3,142.3z"/>
	</g>
	<g>
		<path style="fill:#FFFFFF;" d="M198.3,101.7h-0.1c-1.3-0.3-2.6-0.7-3.7-1.2c-0.3-0.1-0.4-0.4-0.2-0.7c0.1-0.3,0.4-0.4,0.7-0.2
			c1.1,0.5,2.2,0.9,3.5,1.2c0.3,0.1,0.4,0.3,0.4,0.6C198.7,101.5,198.5,101.7,198.3,101.7z"/>
	</g>
	<g>
		<path style="fill:#FFFFFF;" d="M189.8,98.1c-0.1,0-0.2,0-0.2-0.1c-1.7-0.9-3.5-2-5.8-3.5c-9.8-6.4-17.9-25.3-18.2-26.1
			c-0.1-0.3,0-0.5,0.3-0.7c0.3-0.1,0.5,0,0.7,0.3c0.1,0.2,8.3,19.4,17.8,25.7c2.3,1.5,4.1,2.6,5.8,3.5c0.2,0.1,0.3,0.4,0.2,0.7
			C190.2,98,190,98.1,189.8,98.1z"/>
	</g>
	<g>
		<path style="fill:#FFFFFF;" d="M127.4,101.3c-0.2,0-0.4-0.1-0.5-0.3c-0.1-0.3,0-0.5,0.3-0.7c12.3-5.5,21.4-18.9,25.7-26.4
			c0.1-0.2,0.4-0.3,0.7-0.2c0.2,0.1,0.3,0.4,0.2,0.7c-4.4,7.6-13.5,21.2-26.1,26.8C127.5,101.3,127.5,101.3,127.4,101.3z"/>
	</g>
	<g>
		<path style="fill:#FFFFFF;" d="M155.3,71c-0.1,0-0.2,0-0.2-0.1c-0.2-0.1-0.3-0.4-0.2-0.7c1.1-2.1,1.7-3.4,1.7-3.4
			c0.1-0.3,0.4-0.4,0.7-0.2c0.3,0.1,0.4,0.4,0.2,0.7c0,0-0.6,1.3-1.7,3.4C155.7,70.9,155.5,71,155.3,71z"/>
	</g>
	<g>
		<path style="fill:#FFFFFF;" d="M121.4,135c-0.3,0-0.5-0.2-0.5-0.4c-1.9-18,13.5-33.6,13.6-33.7c0.2-0.2,0.5-0.2,0.7,0
			s0.2,0.5,0,0.7s-15.2,15.3-13.4,32.9C121.9,134.7,121.7,135,121.4,135L121.4,135z"/>
	</g>
	<g>
		<path style="fill:#FFFFFF;" d="M134.1,136.9c-0.2,0-0.4-0.2-0.5-0.4c-2.2-12.4,4.6-31.4,4.9-32.2c0.1-0.3,0.4-0.4,0.6-0.3
			c0.3,0.1,0.4,0.4,0.3,0.6c-0.1,0.2-7,19.5-4.9,31.6C134.6,136.6,134.5,136.8,134.1,136.9C134.2,136.9,134.1,136.9,134.1,136.9z"/>
	</g>
	<g>
		<path style="fill:#1365A8;" d="M145.8,124c0,0-35.5,9.6-38.2,10.5s-2.3,7.1-2.3,8.5s-7.9,41.7-7.9,41.7c-2.5,1.6-4.9,3.4-7.1,5.4
			c-3.1,2.9-1.9,6.7-1.9,7.7s0.2,1.3-0.8,2.3s-3.1-0.8-2.7,5.2s-1.7,20,3.6,20.7s8.1,0.2,15.9-2.5c4.6-1.5,8.5-4.8,10.9-9v22.7h96.4
			c0,0,9.8-28.6,10.4-47.4s3.1-46.5-0.4-51.7s-21.7-10.9-37.8-12.9S148.6,123.3,145.8,124z"/>
	</g>
	<g>
		<g>
			<g>
				<g>
					<g>
						<g>
							<defs>
								<path id="SVGID_1_" d="M145.8,124c0,0-35.5,9.6-38.2,10.5s-2.3,7.1-2.3,8.5s-7.9,41.7-7.9,41.7c-2.5,1.6-4.9,3.4-7.1,5.4
									c-3.1,2.9-1.9,6.7-1.9,7.7s0.2,1.3-0.8,2.3s-3.1-0.8-2.7,5.2s-1.7,20,3.6,20.7s8.1,0.2,15.9-2.5c4.6-1.5,8.5-4.8,10.9-9
									v22.7h96.4c0,0,9.8-28.6,10.4-47.4s3.1-46.5-0.4-51.7s-21.7-10.9-37.8-12.9S148.6,123.3,145.8,124z"/>
							</defs>
							<clipPath id="SVGID_2_">
								<use xlink:href="#SVGID_1_"  style="overflow:visible;"/>
							</clipPath>
							<g style="clip-path:url(#SVGID_2_);">
								<g style="opacity:0.24;enable-background:new    ;">
									<path d="M218.1,134.9c0.5,0.6,0.7,1.1,0.3,1.3c-1.3,0.6-7.5,2.6-8.3,5.3s-0.4-8-1.9-4.9s-3.4,15.4-11.3,40.2
										c-6.3,19.8-9.7,45.1-7.6,60.3h22.4c0,0,9.8-28.6,10.4-47.4s3.1-46.5-0.4-51.7C220.8,136.8,219.5,135.7,218.1,134.9z"/>
								</g>
								<g>
									<path style="fill:#1365A8;" d="M147.1,118.7c-1.3,0.9-2.4,2.2-3.1,3.6c-1.3,2.7-12.7,23.6-13.6,24.6s5.2,0.8,7.7-0.4
										s7.1-1.1,7.1-1.1l4.4,3.5l13.6,5.4c0,0,6.1-4.4,9.2-6.9s4.4-3.5,4.4-3.5c2.7,0.9,5.2,2.1,7.7,3.5c3.1,1.9,1.9,2.9,3.1,1.9
										s0.6-2.9-1-5.6s-6.3-17.5-12.3-23S154.2,113.3,147.1,118.7z"/>
									<path style="fill:#3B3E44;" d="M163.2,154.8c-0.1,0-0.1,0-0.2,0l-13.6-5.4c0,0-0.1,0-0.1-0.1l-4.3-3.4
										c-0.8,0-4.6,0-6.7,1.1c-2.2,1-7.6,1.5-8.4,0.5c-0.2-0.2-0.2-0.6,0.1-0.9c0.8-0.9,11.9-21.2,13.5-24.5
										c0.8-1.5,1.9-2.9,3.3-3.8c7.4-5.6,21.7-3.6,27.8,2c4.5,4.1,8.3,13.3,10.5,18.9c0.8,2,1.5,3.6,1.9,4.3
										c1.4,2.3,2.5,4.9,0.9,6.2c-0.4,0.4-0.7,0.6-1,0.5c-0.3,0-0.5-0.3-0.6-0.5c-0.2-0.3-0.7-1-2.1-1.9c-2.7-1.5-5-2.6-7.3-3.4
										c-0.5,0.4-1.8,1.4-4.2,3.3c-3.1,2.5-9.2,6.9-9.2,6.9C163.4,154.8,163.3,154.8,163.2,154.8z M149.9,148.5l13.3,5.3
										c1.1-0.8,6.2-4.5,9-6.7c3.1-2.5,4.4-3.5,4.4-3.5c0.1-0.1,0.3-0.1,0.5-0.1c2.5,0.8,5,2,7.8,3.5c1.5,0.9,2.1,1.7,2.4,2.1
										c0.1,0,0.1-0.1,0.2-0.1c0.8-0.7,0.5-2.2-1.1-5c-0.4-0.8-1.1-2.4-1.9-4.4c-2.2-5.4-6-14.5-10.3-18.5
										c-5.8-5.3-19.7-7.2-26.6-2l0,0c-1.2,0.8-2.3,2.1-2.9,3.4c-1,2-11.6,21.6-13.5,24.4c1.1,0.2,4.9,0,6.9-0.9
										c2.6-1.2,7.1-1.2,7.3-1.1c0.1,0,0.2,0,0.3,0.1L149.9,148.5z M147.1,118.7L147.1,118.7L147.1,118.7z"/>
								</g>
								<g>
									<polygon style="fill:#1365A8;" points="174.9,166.5 201.4,166.7 200.9,174.1 187.2,181.1 174.9,174.3 									"/>
									<path style="fill:#3B3E44;" d="M187.2,181.6c-0.1,0-0.2,0-0.2-0.1l-12.3-6.8c-0.2-0.1-0.3-0.3-0.3-0.4v-7.8
										c0-0.1,0.1-0.3,0.1-0.4c0.1-0.1,0.2-0.2,0.4-0.1l26.5,0.2c0.1,0,0.3,0.1,0.4,0.2c0.1,0.1,0.1,0.2,0.1,0.4l-0.5,7.4
										c0,0.2-0.1,0.3-0.3,0.4l-13.7,7C187.4,181.6,187.3,181.6,187.2,181.6z M175.4,174l11.8,6.5l13.2-6.8l0.4-6.6l-25.5-0.2v7.1
										H175.4z"/>
								</g>
								<g>
									<polygon style="fill:#1365A8;" points="115.4,164.2 141.9,164.3 141.3,171.8 127.7,178.7 115.4,172 									"/>
									<path style="fill:#3B3E44;" d="M127.7,179.2c-0.1,0-0.2,0-0.2-0.1l-12.3-6.7c-0.2-0.1-0.3-0.3-0.3-0.4v-7.8
										c0-0.1,0.1-0.3,0.1-0.4s0.3-0.2,0.4-0.1l26.5,0.1c0.1,0,0.3,0.1,0.4,0.2s0.1,0.2,0.1,0.4l-0.6,7.5c0,0.2-0.1,0.3-0.3,0.4
										l-13.6,6.9C127.9,179.2,127.8,179.2,127.7,179.2z M115.9,171.7l11.8,6.4l13.1-6.7l0.5-6.7l-25.5-0.1L115.9,171.7
										L115.9,171.7z"/>
								</g>
								<g style="opacity:0.24;enable-background:new    ;">
									<path d="M115.7,221.6c0,0-1.5-56.8-0.4-63.2s-6.8-25.6-6.4-15.4s3,25.5,3.2,29.3s-8.9,1.9-8.1,6.8c0.8,4.9,6,4.9,7.5,12.4
										c1.5,7.5-11.3,7.1-11.3,11.3s4.5,9.8,0.8,13.2s-5.9-1.1-5.9-1.1c1.3,3.6,1.6,7.4,0.7,11.2c2.9-0.6,5.8-1.4,8.6-2.4
										c4.6-1.5,8.5-4.8,10.9-9v8.2L115.7,221.6z"/>
								</g>
							</g>
						</g>
					</g>
				</g>
			</g>
		</g>
	</g>
	<g>
		<path style="fill:#3B3E44;" d="M211.7,237.7h-96.4c-0.3,0-0.5-0.2-0.5-0.5v-21c-2.5,3.6-6.2,6.4-10.2,7.7
			c-8,2.8-10.9,3.2-16.1,2.5c-4.4-0.6-4.2-9-4-15.7c0.1-2.1,0.1-4,0-5.5c-0.3-4.5,0.8-5.1,2.1-5.3c0.3-0.1,0.6-0.1,0.7-0.3
			c0.7-0.7,0.7-0.9,0.7-1.5c0-0.1,0-0.3,0-0.4s0-0.4-0.1-0.6c-0.2-1.6-0.7-4.8,2.1-7.4c2.1-1.9,4.4-3.7,7-5.3
			c3.2-16.1,7.8-40.3,7.8-41.4v-0.5c0-2.3-0.2-7.5,2.6-8.5c2.7-0.9,36.8-10.1,38.2-10.5l0,0c2.8-0.7,22-0.8,38.3,1.2
			c15.4,1.9,34.4,7.5,38.2,13.1c2.8,4.1,1.9,21.4,1.1,38c-0.2,5-0.5,9.7-0.6,14c-0.6,18.7-10.3,47.3-10.4,47.5
			C212.1,237.6,211.9,237.7,211.7,237.7z M115.8,236.7h95.5c1.1-3.3,9.7-29.5,10.3-46.9c0.1-4.3,0.4-9,0.6-14
			c0.8-15.7,1.7-33.5-0.9-37.4c-3.2-4.8-20.3-10.6-37.4-12.7c-16.2-2-35.2-1.9-37.9-1.2c-0.6,0.2-35.5,9.6-38.2,10.5
			c-2.1,0.7-2,5.8-2,7.5c0,0.2,0,0.4,0,0.5c0,1.4-7.1,37.7-7.9,41.8c0,0.1-0.1,0.3-0.2,0.3c-2.6,1.7-4.9,3.5-7,5.3
			c-2.4,2.2-2,5.1-1.8,6.6c0,0.3,0.1,0.6,0.1,0.8c0,0.1,0,0.3,0,0.4c0,0.8,0,1.3-1,2.3c-0.4,0.4-0.8,0.5-1.2,0.5
			c-0.8,0.2-1.6,0.3-1.3,4.3c0.1,1.5,0,3.5,0,5.6c-0.2,6-0.4,14.2,3.2,14.7c5.1,0.7,7.8,0.3,15.7-2.5c4.4-1.4,8.3-4.6,10.6-8.8
			c0.1-0.2,0.3-0.3,0.6-0.2c0.2,0.1,0.4,0.3,0.4,0.5v22.1H115.8L115.8,236.7z M97.4,184.7L97.4,184.7L97.4,184.7z"/>
	</g>
	<g>
		<path style="fill:#3B3E44;" d="M115.4,215.3c-0.3,0-0.5-0.2-0.5-0.5c0-0.2-1.7-21-6.2-26.2c-0.2-0.2-0.2-0.5,0.1-0.7
			c0.2-0.2,0.5-0.2,0.7,0.1c2.7,3.2,4.5,11.7,5.4,18.2v-24.6c0-0.3,0.2-0.5,0.5-0.5s0.5,0.2,0.5,0.5v33.2
			C115.9,215.1,115.7,215.3,115.4,215.3L115.4,215.3z"/>
	</g>
	<g>
		<path style="fill:#3B3E44;" d="M101.4,223.4c-0.1,0-0.2,0-0.2-0.1c-0.2-0.1-0.3-0.4-0.2-0.7c0,0,2.4-4.7,0.4-11.9
			c-2-7.2-11.9-10.7-12-10.8c-0.3-0.1-0.4-0.4-0.3-0.6c0.1-0.3,0.4-0.4,0.6-0.3c0.4,0.2,10.5,3.8,12.6,11.4s-0.3,12.5-0.4,12.7
			C101.8,223.3,101.6,223.4,101.4,223.4z"/>
	</g>
	<g>
		<path style="fill:#1365A8;" d="M77.3,212.1c0,0,7.4-3.4,8-4s7.1-0.3,9.8,6.6s0.8,10.3-0.6,11s-8.5,2.8-10.5,2.8
			S73.8,214.7,77.3,212.1z"/>
		<path style="fill:#3B3E44;" d="M84,229c-1.8,0-5.8-6.5-7.4-11.1c-1-3.2-0.9-5.2,0.4-6.2c0,0,0.1,0,0.1-0.1
			c3.6-1.6,7.5-3.5,7.9-3.9c0.5-0.5,1.8-0.4,2.9-0.2c1.6,0.3,5.7,1.7,7.8,7c2.7,6.9,1,10.7-0.8,11.6C93.3,226.9,86.1,229,84,229z
			 M77.6,212.5c-0.7,0.6-0.8,2.1-0.2,4.3c1.4,4.9,5.6,11.1,6.6,11.1c1.9,0,9-2.1,10.3-2.7c1-0.5,3.1-3.4,0.4-10.4
			c-1.5-3.8-4-5.3-5.9-6c-1.6-0.6-2.9-0.5-3.1-0.4C85,209.1,79.4,211.7,77.6,212.5z"/>
	</g>
	<g>
		<path style="fill:#FFFFFF;" d="M148.2,122.1c0,0-3.3,114.7-1.9,114.7h23.4c0,0,0.2-83.6,1.7-91.5s5.2-21.9,4.6-25.7
			s-26.7-1.7-26.7-1.7C148.8,119.2,148.4,120.7,148.2,122.1z"/>
	</g>
	<g>
		<g>
			<g>
				<g>
					<g>
						<g>
							<defs>
								<path id="SVGID_3_" d="M148.2,122.1c0,0-3.3,114.7-1.9,114.7h23.4c0,0,0.2-83.6,1.7-91.5s5.2-21.9,4.6-25.7
									s-26.7-1.7-26.7-1.7C148.8,119.2,148.4,120.7,148.2,122.1z"/>
							</defs>
							<clipPath id="SVGID_4_">
								<use xlink:href="#SVGID_3_"  style="overflow:visible;"/>
							</clipPath>
							<g style="clip-path:url(#SVGID_4_);">
								<g>
									<path style="fill:#D3D3D3;" d="M148.2,122.1c0,0-3.3,114.7-1.9,114.7h23.4c0,0,0.2-83.6,1.7-91.5s5.2-21.9,4.6-25.7
										s-26.7-1.7-26.7-1.7C148.8,119.2,148.4,120.7,148.2,122.1z"/>
								</g>
								<g style="opacity:0.7;enable-background:new    ;">
									<path style="fill:#FFFFFF;" d="M148.2,122.1c0,0-3.3,114.7-1.9,114.7h23.4c0,0,0.2-83.6,1.7-91.5s5.2-21.9,4.6-25.7
										s-26.7-1.7-26.7-1.7C148.8,119.2,148.4,120.7,148.2,122.1z"/>
								</g>
							</g>
						</g>
					</g>
				</g>
			</g>
		</g>
	</g>
	<g>
		<path style="fill:#3B3E44;" d="M169.7,237.3h-23.4c-0.1,0-0.3-0.1-0.4-0.2c-1.3-1.4,0.8-80.9,1.8-115.1c0,0,0,0,0-0.1
			c0.2-1.4,0.6-2.9,1.1-4.3c0.1-0.2,0.2-0.3,0.4-0.3c6.2-0.5,26.6-1.8,27.2,2.1c0.4,2.8-1.2,10.4-2.9,17.8c-0.7,3-1.3,5.8-1.7,8.1
			c-1.5,7.8-1.7,90.6-1.7,91.4C170.2,237.1,170,237.3,169.7,237.3z M146.7,236.5L146.7,236.5L146.7,236.5z M146.7,236.3h22.5
			c0-7.6,0.3-83.5,1.7-91.1c0.4-2.3,1.1-5.2,1.7-8.1c1.5-6.9,3.3-14.8,2.9-17.4c-0.3-2.1-13.3-2.3-25.8-1.3c-0.4,1.2-0.8,2.5-1,3.8
			C147.8,152.5,145.8,230.7,146.7,236.3z"/>
	</g>
	<g>
		<path style="fill:#FFB30D;" d="M171.3,146.3c-7.7,2.5-15.9,2.8-23.8,0.9c-0.9,34.3-2.2,89.7-1.3,89.7h23.4
			C169.8,236.8,169.9,158.5,171.3,146.3z"/>
	</g>
	<g>
		<path style="fill:#3B3E44;" d="M169.6,237.4h-23.4c-0.1,0-0.3-0.1-0.4-0.2c-0.3-0.3-1.2-1.2,1.2-90.1c0-0.2,0.1-0.3,0.2-0.4
			c0.1-0.1,0.3-0.1,0.4-0.1c7.8,1.9,15.9,1.6,23.5-0.9c0.2-0.1,0.3,0,0.5,0.1c0.1,0.1,0.2,0.3,0.2,0.4c-1,8.7-1.3,51.9-1.5,75.1
			c-0.1,15.7-0.1,15.7-0.5,15.9C169.8,237.4,169.7,237.4,169.6,237.4z M146.6,236.4h22.6c0-1.6,0.1-7.6,0.1-14.9
			c0.2-22.6,0.5-64.2,1.4-74.5c-7.4,2.2-15.2,2.5-22.7,0.8C146.6,200.1,146.1,232.8,146.6,236.4z"/>
	</g>
	<g>
		<path style="fill:#FFFFFF;" d="M159.4,72.5c0,0-3.5,10.9-18.4,20.7c0,0-1,13.6,3.1,23.8s14.8,18.2,19.4,17.3
			c4.6-0.9,13.6-11.3,16.7-18.6s3.1-20.4,3.1-20.4S167.6,85.2,159.4,72.5z"/>
		<path style="fill:#3B3E44;" d="M162.7,134.9c-5.4,0-15.3-8.1-19.1-17.7c-4.1-10.2-3.1-23.9-3.1-24c0-0.2,0.1-0.3,0.2-0.4
			c14.6-9.6,18.2-20.3,18.2-20.4c0.1-0.2,0.2-0.3,0.4-0.3s0.4,0.1,0.5,0.2c8,12.5,23.6,22.5,23.8,22.7c0.1,0.1,0.2,0.3,0.2,0.4
			c0,0.5,0,13.3-3.1,20.6s-12.1,17.9-17.1,18.9C163.3,134.8,163,134.9,162.7,134.9z M141.5,93.5c-0.1,1.9-0.6,14.1,3.1,23.3
			c4.1,10.2,14.6,17.8,18.8,17s13.2-10.9,16.3-18.3c2.8-6.6,3-18,3.1-19.9c-1.9-1.3-15.5-10.6-23.3-22
			C158.3,76.4,153.9,85.3,141.5,93.5z"/>
	</g>
	<g>
		<path style="fill:#3B3E44;" d="M159.9,117.3c-0.5,0-0.9-0.1-1.3-0.4c-1.1-0.7-1-4.9-0.8-7.4c0-0.3,0.3-0.5,0.5-0.5
			c0.3,0,0.5,0.3,0.5,0.5c-0.2,3.1,0,6.1,0.4,6.4c0.4,0.2,1,0.3,1.4,0.1s0.7-0.7,0.8-1.4c0-0.3,0.3-0.5,0.5-0.5
			c0.3,0,0.5,0.3,0.5,0.5c-0.1,1-0.6,1.8-1.3,2.2C160.6,117.2,160.2,117.3,159.9,117.3z"/>
	</g>
	<g>
		<path style="fill:#3B3E44;" d="M160.1,121.3c-2.1,0-3.7-0.3-3.9-0.3c-0.3-0.1-0.5-0.3-0.4-0.6s0.3-0.4,0.6-0.4
			c0.1,0,5.8,1,8.9-0.7c0.2-0.1,0.5-0.1,0.7,0.2c0.1,0.2,0.1,0.5-0.2,0.7C164.1,121.1,161.9,121.3,160.1,121.3z"/>
	</g>
	<g>
		<path style="fill:#3B3E44;" d="M144.5,95.6c-0.1,0-0.2,0-0.3-0.1c-0.2-0.2-0.3-0.5-0.1-0.7c4.4-5.6,12.4-2.4,12.5-2.4
			c0.3,0.1,0.4,0.4,0.3,0.7c-0.1,0.3-0.4,0.4-0.7,0.3c-0.1,0-7.4-3-11.3,2C144.8,95.5,144.6,95.6,144.5,95.6z"/>
	</g>
	<g>
		<path style="fill:#3B3E44;" d="M163.9,95.8c-0.1,0-0.3,0-0.4-0.1c-0.2-0.2-0.2-0.5,0-0.7c0.1-0.1,6-5.8,14.1-0.7
			c0.2,0.1,0.3,0.5,0.2,0.7s-0.5,0.3-0.7,0.2c-7.5-4.7-12.7,0.3-12.9,0.5C164.2,95.8,164,95.8,163.9,95.8z"/>
	</g>
	<g>
		<path style="fill:#3B3E44;" d="M152.3,105.1c-3.5,0-5.6-1.9-5.7-2.1c-0.2-0.2-0.2-0.5,0-0.7s0.5-0.2,0.7,0
			c0.1,0.1,3.5,3.2,9.1,0.9c0.3-0.1,0.5,0,0.7,0.3s0,0.5-0.3,0.7C155,104.9,153.5,105.1,152.3,105.1z"/>
	</g>
	<g>
		<path style="fill:#3B3E44;" d="M169.6,104.9c-2.6,0-4.6-0.9-4.7-1c-0.3-0.1-0.4-0.4-0.2-0.7c0.1-0.2,0.4-0.4,0.7-0.2
			c0,0,4.8,2.1,8.7-0.4c0.2-0.2,0.5-0.1,0.7,0.1c0.1,0.2,0.1,0.5-0.2,0.7C172.9,104.6,171.2,104.9,169.6,104.9z"/>
	</g>
	<g>
		<path style="fill:#3B3E44;" d="M153.7,104.8c0,0,2.1,0.1,0.1,0.8s-3.9,0.4-5.9-1.3C148,104.2,151.8,104.7,153.7,104.8z"/>
		<path style="fill:#3B3E44;" d="M151.9,106.4c-1.5,0-2.9-0.6-4.3-1.8c-0.1-0.1-0.2-0.2-0.2-0.4c0-0.1,0-0.3,0.1-0.4
			c0.2-0.2,0.2-0.2,2.7,0c1.2,0.1,2.5,0.3,3.4,0.3c1.2,0.1,1.4,0.4,1.4,0.7c0.1,0.6-0.7,0.9-1.2,1.1
			C153.2,106.3,152.5,106.4,151.9,106.4z M149.7,104.9c1.1,0.5,2.2,0.7,3.4,0.3c-0.9-0.1-2-0.2-3-0.3C150,105,149.9,105,149.7,104.9
			z M154.3,105.4L154.3,105.4L154.3,105.4z"/>
	</g>
	<g>
		<path style="fill:#3B3E44;" d="M167.6,104.3c0,0-2-0.2-0.2,0.8s3.8,0.9,6-0.6C173.3,104.5,169.5,104.5,167.6,104.3z"/>
		<path style="fill:#3B3E44;" d="M169.8,106.3c-0.9,0-1.8-0.2-2.7-0.7c-0.4-0.2-1.2-0.6-1-1.2c0-0.2,0.2-0.6,1.5-0.5l0,0
			c1.9,0.2,5.6,0.2,5.7,0.2c0.2,0,0.4,0.1,0.5,0.4c0.1,0.2,0,0.4-0.2,0.6C172.4,105.8,171.1,106.3,169.8,106.3z M168,104.8
			c1.1,0.5,2.2,0.6,3.4,0.1C170.3,105,169,104.9,168,104.8z"/>
	</g>
	<g>
		<path style="fill:#FFFFFF;" d="M198,171.1l-3.1-31.7c0,0-6.5-1.3-8.8-2.9s-5-3.5-5-3.5s-1.5,1.3-2.7,0s-4.8-4-5.4-6.1s3.5-5,6-8.4
			s5.2-6.7,7.1-6.5s10.2,8.6,14.4,15.2s6,8.3,6.1,10.6s4,14,4,14l1,19.8L198,171.1z"/>
		<path style="fill:#3B3E44;" d="M211.6,172.1L211.6,172.1l-13.6-0.5c-0.3,0-0.5-0.2-0.5-0.5l-3.1-31.3c-1.4-0.3-6.6-1.5-8.6-2.9
			c-1.8-1.3-3.9-2.8-4.7-3.3c-0.8,0.5-2,0.9-3.1-0.3c-0.3-0.3-0.8-0.8-1.4-1.3c-1.6-1.5-3.7-3.3-4.2-5s1.2-3.5,3.2-5.6
			c1-1,2-2.1,2.9-3.3c3.1-4.2,5.5-6.9,7.6-6.7c2.3,0.2,10.7,9,14.8,15.4c1.3,2,2.3,3.6,3.2,4.8c2,2.9,2.9,4.3,3,6
			c0.1,1.8,2.6,9.8,4,13.9v0.1l1,19.8c0,0.1,0,0.3-0.1,0.4C211.9,172,211.7,172.1,211.6,172.1z M198.5,170.6l12.6,0.5l-1-19.2
			c-0.3-1-3.9-11.8-4-14.1c-0.1-1.5-0.9-2.7-2.8-5.5c-0.9-1.3-1.9-2.8-3.2-4.9c-4.2-6.7-12.4-14.8-14-15c-1.9-0.2-5.2,4.4-6.6,6.3
			c-0.9,1.2-1.9,2.3-2.9,3.4c-1.7,1.8-3.3,3.5-3,4.6c0.4,1.4,2.4,3.2,3.9,4.6c0.6,0.5,1.1,1,1.4,1.3c0.8,0.9,1.9,0.1,2,0
			c0.2-0.1,0.4-0.2,0.6,0c0,0,2.7,1.9,5,3.5c2.2,1.5,8.5,2.8,8.6,2.8c0.2,0,0.4,0.2,0.4,0.4L198.5,170.6z"/>
	</g>
	<g>
		<path style="fill:#3B3E44;" d="M181.1,133.6c-0.1,0-0.3,0-0.3-0.1c-0.9-0.9-4-3.9-4-5.3c0-0.3,0.2-0.5,0.5-0.5s0.5,0.2,0.5,0.5
			c0,0.6,1.9,2.8,3.6,4.5c0.2,0.2,0.2,0.5,0,0.7C181.4,133.5,181.2,133.6,181.1,133.6z"/>
	</g>
	<g>
		<path style="fill:#1365A8;" d="M191.4,152.7l3.6,20.4l4-22.7l15.5-1.7c0,0-0.1,24.2-0.1,30.3s2.7,34.2,3.5,44s-4.4,13-11.5,13.2
			s-12.9-6.3-15.2-19.6s0.4-37.4-0.8-41.5c-1.1-4-6-20.5-6-20.5L191.4,152.7z"/>
	</g>
	<g>
		<g>
			<g>
				<g>
					<g>
						<g>
							<defs>
								<path id="SVGID_5_" d="M191.4,152.7l3.6,20.4l4-22.7l15.5-1.7c0,0-0.1,24.2-0.1,30.3s2.7,34.2,3.5,44s-4.4,13-11.5,13.2
									s-12.9-6.3-15.2-19.6s0.4-37.4-0.8-41.5c-1.1-4-6-20.5-6-20.5L191.4,152.7z"/>
							</defs>
							<clipPath id="SVGID_6_">
								<use xlink:href="#SVGID_5_"  style="overflow:visible;"/>
							</clipPath>
							<g style="clip-path:url(#SVGID_6_);">
								<g style="opacity:0.24;enable-background:new    ;">
									<path d="M208.9,236c5.8-0.9,9.7-4.4,9.1-13c-0.8-9.8-3.5-37.8-3.5-44s0.2-30.3,0.2-30.3l-2.5,0.3
										c-1.5,4.8-9.5,33.2-5.4,53.4c4.5,22.2,8.3,24.4,2.3,33.5L208.9,236z"/>
								</g>
							</g>
						</g>
					</g>
				</g>
			</g>
		</g>
	</g>
	<g>
		<path style="fill:#3B3E44;" d="M206.1,236.7c-7.6,0-13.2-7.3-15.4-20c-1.4-7.9-1-19.3-0.7-28.5c0.2-6.1,0.4-11.3-0.1-12.9
			c-1.1-4-6-20.3-6-20.5c0-0.1,0-0.3,0-0.4c0.1-0.1,0.2-0.2,0.3-0.2l7-1.9c0.1,0,0.3,0,0.4,0.1s0.2,0.2,0.2,0.3l3.1,17.6l3.5-19.9
			c0-0.2,0.2-0.4,0.4-0.4l15.5-1.7c0.1,0,0.3,0,0.4,0.1s0.2,0.2,0.2,0.4c0,0-0.1,24.2-0.1,30.3c0,4.5,1.5,20.9,2.5,33
			c0.4,4.5,0.7,8.4,1,11c0.4,4.5-0.5,7.9-2.5,10.2c-2,2.2-5.2,3.4-9.4,3.5C206.3,236.7,206.2,236.7,206.1,236.7z M185,154.9
			c0.8,2.8,4.9,16.4,5.9,20c0.5,1.8,0.3,6.8,0.1,13.2c-0.3,9.2-0.7,20.6,0.7,28.3c2.1,12.2,7.3,19.2,14.4,19.2c0.1,0,0.2,0,0.3,0
			c4-0.1,6.9-1.2,8.7-3.2c1.9-2.1,2.6-5.3,2.3-9.4c-0.2-2.6-0.6-6.5-1-11c-1.1-12.1-2.5-28.6-2.5-33.1c0-5.5,0.1-26.1,0.1-29.7
			l-14.6,1.6l-3.9,22.3c0,0.2-0.2,0.4-0.5,0.4c-0.2,0-0.5-0.2-0.5-0.4l-3.5-19.9L185,154.9z"/>
	</g>
	<g>
		<path style="fill:#FFFFFF;" d="M69.4,232c0,0-0.5,3.1,2.3,3.8s9.5-1,10.1-2.5c0.3-0.8,0.2-1.7-0.4-2.4h-6.1
			C75.2,231,70.6,229.5,69.4,232z"/>
		<path style="fill:#3B3E44;" d="M73.3,236.5c-0.7,0-1.2-0.1-1.7-0.2c-2.6-0.6-2.9-3.1-2.7-4.4v-0.1c1.2-2.4,4.8-1.7,6-1.4
			c0.1,0,0.2,0,0.3,0.1l0,0h6.1c0.1,0,0.3,0.1,0.4,0.2c0.7,0.8,0.9,1.9,0.5,2.9C81.6,235.1,76.6,236.5,73.3,236.5z M69.9,232.1
			c0,0.4-0.2,2.6,1.9,3.2c2.8,0.7,9.1-1.1,9.5-2.2c0.2-0.6,0.2-1.2-0.2-1.7h-5.8c-0.1,0-0.3,0-0.6-0.1
			C73.8,231.1,70.8,230.5,69.9,232.1z"/>
	</g>
	<g>
		<polygon style="fill:#3B3E44;" points="41.9,198.7 67.3,216.4 69.2,213.9 43.7,196 		"/>
		<path style="fill:#3B3E44;" d="M67.3,216.9c-0.1,0-0.2,0-0.3-0.1l-25.4-17.7c-0.2-0.2-0.3-0.5-0.1-0.7l1.8-2.7
			c0.1-0.1,0.2-0.2,0.3-0.2s0.3,0,0.4,0.1l25.5,17.9c0.1,0.1,0.2,0.2,0.2,0.3c0,0.1,0,0.3-0.1,0.4l-1.9,2.5
			C67.6,216.8,67.5,216.9,67.3,216.9z M42.6,198.6l24.6,17.1l1.3-1.7l-24.7-17.3L42.6,198.6z"/>
	</g>
	<g>
		<polygon style="fill:#FFFFFF;" points="47.8,202.8 49.8,200.3 43.7,196 41.9,198.7 		"/>
		<path style="fill:#3B3E44;" d="M47.8,203.3c-0.1,0-0.2,0-0.3-0.1l-5.9-4.1c-0.2-0.2-0.3-0.5-0.1-0.7l1.8-2.7
			c0.1-0.1,0.2-0.2,0.3-0.2s0.3,0,0.4,0.1l6.1,4.3c0.1,0.1,0.2,0.2,0.2,0.3s0,0.3-0.1,0.4l-2,2.5C48.1,203.2,47.9,203.3,47.8,203.3z
			 M42.6,198.6l5.1,3.6l1.4-1.7l-5.2-3.7L42.6,198.6z"/>
	</g>
	<g>
		<path style="fill:#FFFFFF;" d="M73.4,231.8c4-0.2,7.8-1.8,10.7-4.5c4.6-4.4,4.9-7.4-1.3-13.8s-19.6,1.1-20.1,3.9
			S73.4,231.8,73.4,231.8z"/>
		<path style="fill:#3B3E44;" d="M73.4,232.3c-0.1,0-0.3-0.1-0.4-0.2c-1.9-2-11.4-11.9-10.8-14.8c0.3-1.8,4.6-4.7,8.9-6
			c3-0.9,8.4-1.9,12,1.8c3.4,3.6,4.9,6.1,4.8,8.4c0,1.9-1.1,3.8-3.6,6.1C81.5,230.4,77.5,232.1,73.4,232.3L73.4,232.3z M76.2,211.5
			c-1.8,0-3.6,0.4-4.8,0.8c-4.5,1.4-8,4.1-8.2,5.2c-0.3,1.8,6.1,9.4,10.4,13.8c3.8-0.2,7.4-1.8,10.2-4.4c2.2-2.1,3.2-3.8,3.2-5.4
			c0-2-1.4-4.4-4.6-7.7C80.7,212,78.4,211.5,76.2,211.5z"/>
	</g>
	<g>
		<path style="fill:#FFFFFF;" d="M87,220.2c0,0-1.7,3.6-3.4,5s-4.3,1.7-5.8-0.5s-3.1-9.1-4.5-9.2s-8.1-2.4-10-5
			c-1.9-2.6-1.8-4.7,2.4-3.4s15.6,2.7,15.6,2.7s2.7,1.6,4.5,7.3"/>
		<path style="fill:#3B3E44;" d="M80.7,226.8c-0.2,0-0.4,0-0.6,0c-1.1-0.2-2.1-0.8-2.7-1.8c-0.7-1-1.3-2.7-2-4.4
			c-0.6-1.6-1.6-4.4-2.2-4.5c-1.3-0.1-8.3-2.4-10.4-5.2c-1.2-1.7-1.6-3.1-1-3.9s1.9-0.9,4-0.3c4.1,1.3,15.4,2.7,15.5,2.7
			s0.1,0,0.2,0.1s2.9,1.8,4.7,7.6c0.1,0.3-0.1,0.5-0.3,0.6c-0.3,0.1-0.5-0.1-0.6-0.3c-1.6-4.9-3.8-6.7-4.2-7
			c-1.3-0.2-11.6-1.5-15.6-2.7c-1.8-0.5-2.6-0.4-2.8-0.1s0,1.3,1,2.7c1.8,2.4,8.3,4.7,9.6,4.8c1.1,0.1,1.8,1.9,3,5.2
			c0.6,1.7,1.3,3.4,1.8,4.2c0.5,0.8,1.2,1.2,2.1,1.4c1,0.1,2.1-0.2,3-1c1.6-1.3,3.2-4.8,3.3-4.8c0.1-0.2,0.4-0.4,0.7-0.2
			c0.3,0.1,0.4,0.4,0.2,0.7c-0.1,0.2-1.8,3.7-3.5,5.2C83,226.4,81.8,226.8,80.7,226.8z"/>
	</g>
	<g>
		<path style="fill:#FFFFFF;" d="M65.2,228.7c0.6,0.7,2.6,4.1,3.5,4.3s6.6-3.4,8.8-6.2s-1.9-6.6-3.1-7.1S65.2,228.7,65.2,228.7z"/>
		<path style="fill:#3B3E44;" d="M68.7,233.5c-0.1,0-0.1,0-0.2,0c-0.8-0.2-1.7-1.5-3-3.4c-0.3-0.5-0.6-0.9-0.8-1.1s-0.2-0.5,0-0.6
			c5.5-6.5,8.8-9.6,9.8-9.1c0.9,0.4,3.3,2.4,3.9,4.7c0.3,1.2,0.1,2.3-0.6,3.2C75.9,229.6,70.3,233.5,68.7,233.5z M65.8,228.7
			c0.2,0.2,0.4,0.5,0.6,0.8c0.6,0.8,1.9,2.8,2.4,3l0,0c0.8,0,6.2-3.3,8.3-6c0.5-0.7,0.7-1.4,0.4-2.3c-0.5-2-2.7-3.8-3.3-4
			C73.4,220.3,69.3,224.6,65.8,228.7z"/>
	</g>
	<g>
		<path style="fill:#FFFFFF;" d="M62.3,218.7c0,0-5,3-3.8,5.1s5.2,5.2,6.5,4.6c1.3-0.6,9.9-4.6,9.9-6.8s-0.2-4.8-4.6-4.4
			C67.6,217.5,64.9,218,62.3,218.7z"/>
		<path style="fill:#3B3E44;" d="M64.6,229c-2,0-5.5-3.1-6.6-4.9c-1.4-2.5,3.4-5.4,4-5.8c0,0,0.1,0,0.1-0.1c2.6-0.7,5.3-1.2,8.1-1.5
			c1.8-0.2,3.1,0.1,4,0.9c1.1,1,1.2,2.6,1.2,4c0,2.1-5.5,5.1-10.2,7.3C65,228.9,64.8,229,64.6,229z M62.5,219.2
			c-1.2,0.8-4.3,3-3.6,4.4c1.2,2.1,5,4.8,5.9,4.4c5.7-2.6,9.6-5.2,9.6-6.3c0-1.2-0.1-2.5-0.9-3.2c-0.6-0.6-1.7-0.8-3.2-0.7
			C67.7,218,65,218.5,62.5,219.2z"/>
	</g>
	<g>
		<path style="fill:#FFFFFF;" d="M57.3,210.4c0,0-2.4,4.9-0.2,7.1s16,2.1,16.7-0.4s-4.5-3.1-8.3-4.7
			C61.7,210.8,57.8,209.3,57.3,210.4z"/>
		<path style="fill:#3B3E44;" d="M65.4,219.6c-3.7,0-7.4-0.5-8.6-1.7c-2.4-2.4,0-7.4,0.1-7.7c0.6-1.4,3.5-0.5,8.8,1.8
			c1,0.4,2.2,0.8,3.3,1.1c3.1,1,5.9,1.9,5.3,4.2c-0.2,0.7-1,1.3-2.6,1.7C70.1,219.3,67.8,219.6,65.4,219.6z M58.1,210.5
			c-0.3,0-0.4,0.1-0.4,0.1l0,0c0,0-2.2,4.6-0.3,6.5c1.5,1.5,9.7,1.9,14,0.8c1.3-0.3,1.8-0.7,1.9-1c0.4-1.3-1.5-1.9-4.6-2.9
			c-1.1-0.4-2.3-0.7-3.4-1.2C60.6,210.9,58.8,210.5,58.1,210.5z M57.3,210.4L57.3,210.4L57.3,210.4z"/>
	</g>
	<g>
		<path style="fill:#FFFFFF;" d="M110.7,236.2c0,0-0.4-6.5-6.1-8.8s-8.8-1.4-21.7,2.1c-8.1,2.1-16.4,3.4-24.8,3.8v2.9H110.7z"/>
		<path style="fill:#3B3E44;" d="M110.7,236.7H58.1c-0.3,0-0.5-0.2-0.5-0.5v-2.9c0-0.3,0.2-0.5,0.5-0.5c8.2-0.4,16.5-1.7,24.7-3.8
			l0.6-0.2c12.4-3.4,15.7-4.3,21.4-1.9c5.9,2.4,6.4,9,6.4,9.2c0,0.1,0,0.3-0.1,0.4S110.8,236.7,110.7,236.7z M58.6,235.7h51.5
			c-0.2-1.5-1.3-6.1-5.7-7.8c-5.5-2.2-8.4-1.4-20.8,2l-0.6,0.2c-8.1,2.1-16.3,3.4-24.4,3.8C58.6,233.9,58.6,235.7,58.6,235.7z"/>
	</g>
	<g>
		<path style="fill:#FFFFFF;" d="M110.5,236.2c0,0,0.4-6.5,6.1-8.8c5.7-2.3,8.8-1.4,21.7,2.1c8.1,2.1,16.4,3.4,24.8,3.8v2.9H110.5z"
			/>
		<path style="fill:#3B3E44;" d="M163.1,236.7h-52.6c-0.1,0-0.3-0.1-0.4-0.2s-0.1-0.2-0.1-0.4c0-0.3,0.5-6.8,6.4-9.2
			c5.8-2.3,9.1-1.4,21.4,1.9l0.6,0.2c8.2,2.1,16.5,3.4,24.7,3.8c0.3,0,0.5,0.2,0.5,0.5v2.9C163.6,236.5,163.4,236.7,163.1,236.7z
			 M111.1,235.7h51.5v-1.9c-8.1-0.4-16.3-1.7-24.4-3.8l-0.6-0.2c-12.4-3.4-15.4-4.2-20.8-2C112.4,229.6,111.3,234.2,111.1,235.7z"/>
	</g>
	<g>
		<rect x="56.8" y="235" style="fill:#3B3E44;" width="108.5" height="2.1"/>
		<path style="fill:#3B3E44;" d="M165.3,237.6H56.8c-0.3,0-0.5-0.2-0.5-0.5V235c0-0.3,0.2-0.5,0.5-0.5h108.5c0.3,0,0.5,0.2,0.5,0.5
			v2.1C165.8,237.4,165.6,237.6,165.3,237.6z M57.3,236.6h107.5v-1.1H57.3V236.6z"/>
	</g>
</g>
<g id="freepik--Device--inject-4">
	<g>
		<path style="fill:#3B3E44;" d="M342.2,237.6H20.2c-0.3,0-0.5-0.2-0.5-0.5s0.2-0.5,0.5-0.5h322.1c0.3,0,0.5,0.2,0.5,0.5
			S342.5,237.6,342.2,237.6z"/>
	</g>
	<g>
		<polygon style="fill:#FFFFFF;" points="338.2,179.1 264.2,179.1 239.1,237.3 313,237.3 		"/>
		<path style="fill:#3B3E44;" d="M313,237.8h-73.9c-0.2,0-0.3-0.1-0.4-0.2s-0.1-0.3,0-0.5l25.1-58.2c0.1-0.2,0.3-0.3,0.5-0.3h74
			c0.2,0,0.3,0.1,0.4,0.2s0.1,0.3,0,0.5l-25.2,58.2C313.4,237.7,313.2,237.8,313,237.8z M239.9,236.8h72.8l24.8-57.2h-73
			L239.9,236.8z"/>
	</g>
	<g>
		<polygon style="fill:#3B3E44;" points="341,179.1 267.1,179.1 242,237.3 315.9,237.3 		"/>
		<path style="fill:#3B3E44;" d="M315.9,237.8H242c-0.2,0-0.3-0.1-0.4-0.2s-0.1-0.3,0-0.5l25.1-58.2c0.1-0.2,0.3-0.3,0.5-0.3h73.9
			c0.2,0,0.3,0.1,0.4,0.2s0.1,0.3,0,0.5l-25.1,58.2C316.3,237.7,316.1,237.8,315.9,237.8z M242.8,236.8h72.8l24.7-57.2h-72.8
			L242.8,236.8z"/>
	</g>
	<g>
		<path style="fill:#FFB30D;" d="M297.4,214.5c-1.9,3-5.5,4.2-8,2.6s-3-5.3-1.1-8.3s5.5-4.2,8-2.6S299.3,211.5,297.4,214.5z"/>
		<path style="fill:#FFFFFF;" d="M291.9,218.3c-1,0-2-0.3-2.8-0.8c-2.7-1.7-3.3-5.8-1.3-9c1.1-1.8,2.8-3,4.7-3.4
			c1.4-0.3,2.9-0.1,4,0.6c2.7,1.7,3.3,5.8,1.3,9l0,0c-1.1,1.8-2.8,3-4.7,3.4C292.7,218.3,292.3,218.3,291.9,218.3z M293.8,206
			c-0.3,0-0.7,0-1.1,0.1c-1.6,0.4-3.1,1.4-4,3c-1.7,2.7-1.3,6.2,0.9,7.6c0.9,0.6,2.1,0.8,3.3,0.5c1.6-0.4,3.1-1.4,4-3l0,0
			c1.7-2.7,1.3-6.2-0.9-7.6C295.4,206.2,294.6,206,293.8,206z M297.4,214.5L297.4,214.5L297.4,214.5z"/>
	</g>
	<g>
		<rect x="186.1" y="235" style="fill:#FFFFFF;" width="54" height="2.1"/>
		<path style="fill:#3B3E44;" d="M240.1,237.6h-54c-0.3,0-0.5-0.2-0.5-0.5V235c0-0.3,0.2-0.5,0.5-0.5h54c0.3,0,0.5,0.2,0.5,0.5v2.1
			C240.6,237.4,240.4,237.6,240.1,237.6z M186.6,236.6h53v-1.1h-53V236.6z"/>
	</g>
</g>
</svg>
